<?xml version="1.0" standalone="no"?><!DOCTYPE svg PUBLIC "-//W3C//DTD SVG 1.1//EN" "http://www.w3.org/Graphics/SVG/1.1/DTD/svg11.dtd"><svg t="1508920201737" class="icon" style="" viewBox="0 0 1024 1024" version="1.1" xmlns="http://www.w3.org/2000/svg" p-id="1696" xmlns:xlink="http://www.w3.org/1999/xlink" width="200" height="200"><defs><style type="text/css"></style></defs><path d="M737.87704 649.887932a363.058031 363.058031 0 0 0-104.534132-57.953825l-4.600524-1.597404a233.732185 233.732185 0 0 0 79.806314-76.675403 231.623612 231.623612 0 0 0 36.229128-124.597529 232.901535 232.901535 0 0 0-232.64595-232.64595 232.901535 232.901535 0 0 0-232.645951 232.64595c0 44.152253 12.459753 87.090478 36.03744 124.278049 20.063397 31.564707 47.283165 57.826033 79.359041 76.611506l-5.814551 1.980781a362.291277 362.291277 0 0 0-104.598028 58.081617 369.831025 369.831025 0 0 0-117.888432 165.938351 457.368776 457.368776 0 0 1-115.524273-304.784725c0-62.107076 12.140272-122.361163 36.165232-179.037065a460.052415 460.052415 0 0 1 98.591788-146.25833A458.327218 458.327218 0 0 1 511.109537 51.116935c62.107076 0 122.361163 12.140272 179.037065 36.165231a460.052415 460.052415 0 0 1 146.25833 98.591789 457.62436 457.62436 0 0 1 98.591788 146.25833c23.961063 56.675902 36.165231 116.929989 36.165232 179.037065a457.240983 457.240983 0 0 1-115.396481 304.656932 367.850243 367.850243 0 0 0-117.888431-165.93835z m-421.586921 40.19069a310.343692 310.343692 0 0 1 195.011107-67.921627c71.499813 0 138.846375 23.449894 194.755522 67.793835a315.902658 315.902658 0 0 1 108.879071 166.769 457.368776 457.368776 0 0 1-303.69849 114.565831 456.218645 456.218645 0 0 1-179.037064-36.165232 456.474229 456.474229 0 0 1-124.533633-78.272806 314.880319 314.880319 0 0 1 108.623487-166.769001z m195.905653-119.485835a181.656808 181.656808 0 0 1-181.465119-181.529016 181.656808 181.656808 0 0 1 181.465119-181.465119 181.656808 181.656808 0 0 1 181.529015 181.465119 181.720704 181.720704 0 0 1-181.529015 181.529016z m470.020217-258.396107a510.147011 510.147011 0 0 0-109.518033-162.487957A509.124672 509.124672 0 0 0 511.237329 0a510.147011 510.147011 0 0 0-361.460626 149.708723A509.124672 509.124672 0 0 0 0.06798 511.16935a510.147011 510.147011 0 0 0 149.708723 361.460626 509.124672 509.124672 0 0 0 361.460626 149.708724 510.147011 510.147011 0 0 0 361.460627-149.708724 509.124672 509.124672 0 0 0 149.708723-361.460626c0-69.007862-13.545988-135.971047-40.19069-198.97267z" p-id="1697"></path></svg>