<?xml version="1.0" standalone="no"?><!DOCTYPE svg PUBLIC "-//W3C//DTD SVG 1.1//EN" "http://www.w3.org/Graphics/SVG/1.1/DTD/svg11.dtd"><svg t="1508919899975" class="icon" style="" viewBox="0 0 1024 1024" version="1.1" xmlns="http://www.w3.org/2000/svg" p-id="1572" xmlns:xlink="http://www.w3.org/1999/xlink" width="200" height="200"><defs><style type="text/css"></style></defs><path d="M476.342 783.341l-2.52-235.683-230.58 2.52-2.52-74.907 235.62-2.52-2.52-229.572 74.907-2.52 2.52 234.612 229.572-2.52 2.52 74.907-234.612 2.52 2.52 233.1z" p-id="1573"></path><path d="M512 1016c-277.893 0-504-226.107-504-504s226.107-504 504-504 504 226.107 504 504-226.107 504-504 504zM512 75.221c-240.849 0-436.779 195.93-436.779 436.779s195.93 436.779 436.779 436.779 436.779-195.93 436.779-436.779-195.93-436.779-436.779-436.779z" p-id="1574"></path></svg>