<?xml version="1.0" standalone="no"?><!DOCTYPE svg PUBLIC "-//W3C//DTD SVG 1.1//EN" "http://www.w3.org/Graphics/SVG/1.1/DTD/svg11.dtd"><svg t="1511171485205" class="icon" style="" viewBox="0 0 1024 1024" version="1.1" xmlns="http://www.w3.org/2000/svg" p-id="2465" xmlns:xlink="http://www.w3.org/1999/xlink" width="200" height="200"><defs><style type="text/css"></style></defs><path d="M845.3632 192.7424C873.216 192.7424 896 172.4928 896 147.7888V112.0256H110.72v35.7376c0 24.704 22.8096 44.928 50.6368 44.928h4.9664c0.0512 108.416 38.4 210.7392 134.8608 281.0368 8.448 6.7584 28.5952 22.9376 38.784 31.7696 7.8592 7.8336 14.0288 15.6416 14.464 21.1968 1.024 13.312-17.4848 30.0544-32.1792 41.088-112.128 70.912-155.8016 179.6864-155.8784 295.3984h-5.0176c-27.8272 0-50.6112 20.1984-50.6112 44.928v35.7376H896v-35.7376c0-24.7296-22.784-44.9536-50.6368-44.9536h-4.8896c-0.0512-115.4816-44.5696-223.5904-155.4176-293.888-15.7952-12.5696-34.2528-29.2864-33.1776-42.5728 0.4096-5.5552 6.5536-13.3376 14.4128-21.1968a2011.136 2011.136 0 0 1 42.7008-34.9184c93.312-70.2976 131.4816-170.9568 131.4816-277.8624h4.8896zM680.7296 401.92s-9.4976 10.0864-30.7456 25.3184c-10.112 9.088-20.7104 17.4336-31.744 24.8576-17.5104 15.3088-36.7616 35.328-40.5504 52.1728h-1.0752c-2.9952 14.3616-8.0896 61.8496 42.8032 100.1984 21.888 16.512 27.9808 21.6576 26.8032 21.4784l3.7632 3.2512c21.2224 15.2064 30.6944 25.2928 30.6944 25.2928 74.496 55.5264 82.4832 178.2784 83.3024 208.6912h-94.592c2.4832-77.6192-50.2528-130.688-59.6992-141.696-9.5232-11.0848-26.1888-26.4448-64.3328-65.6128-38.0928-39.0912-22.6048-102.0416-14.2848-135.3984 8.2944-33.2544 60.16-79.8464 78.592-99.3792 18.5088-19.584 16.7168-33.8688 16.7168-33.8688h-243.0464s-1.8176 14.2336 16.64 33.8688c18.4832 19.584 70.3232 66.1248 78.6432 99.3792 8.2944 33.3568 23.808 96.3072-14.3104 135.3984-38.1184 39.168-54.8096 54.5024-64.3328 65.6128-9.4464 11.008-62.1568 64.0768-59.6224 141.696H244.224c0.768-30.4128 8.8064-153.1648 83.2768-208.64 0 0 9.4976-10.1376 30.7456-25.2928 1.2288-1.1264 2.4832-2.2272 3.7376-3.3024-1.1776 0.1792 4.8896-4.9664 26.8288-21.4784 50.8672-38.3488 45.7728-85.8368 42.7776-100.1984h-1.1264c-3.84-16.8448-23.04-36.8384-40.5248-52.1984-11.1616-7.5008-21.76-15.8208-31.7184-24.832-21.2736-15.232-30.7712-25.3184-30.7712-25.3184-74.2144-55.3728-82.4064-177.4592-83.2768-208.384h519.808c-0.8704 30.9248-9.088 153.0368-83.3024 208.384h0.0512z m0 0" fill="" p-id="2466"></path></svg>