<?xml version="1.0" standalone="no"?><!DOCTYPE svg PUBLIC "-//W3C//DTD SVG 1.1//EN" "http://www.w3.org/Graphics/SVG/1.1/DTD/svg11.dtd"><svg t="1509340102356" class="icon" style="" viewBox="0 0 1024 1024" version="1.1" xmlns="http://www.w3.org/2000/svg" p-id="91376" xmlns:xlink="http://www.w3.org/1999/xlink" width="200" height="200"><defs><style type="text/css"></style></defs><path d="M497.339 18.201h17.856c74.397 1.61 148.543 19.485 214.892 53.337 100.398 50.487 182.569 136.224 228.578 238.75 27.939 61.151 42.444 128.119 43.994 195.281v17.836c-1.706 83.081-24.023 165.771-65.652 237.762-47.792 83.835-120.617 152.995-206.844 196.347-37.168 19.214-77.129 32.224-117.459 42.983-15.008 4.402-30.42 7.174-45.719 10.394h-112.029c-85.661-11.129-169.055-42.655-238.991-93.627-57.722-42.034-106.66-96.245-141.735-158.482-40.757-71.408-62.589-153.15-64.294-235.278v-17.779c0.853-25.769 2.89-51.554 7.523-76.934 14.038-81.761 49.442-159.664 101.347-224.324 39.205-48.878 87.639-90.426 142.162-121.351 71.662-41.143 153.834-63.187 236.373-64.914zM344.88 87.359c-57.392 21.676-110.323 55.121-154.55 97.621-74.415 70.943-123.684 167.748-136.694 269.771-9.792 74.295-1.143 151.017 25.419 221.123 22.53 59.619 57.703 114.47 102.645 159.682 42.832-31.757 94.445-47.385 142.745-68.498 16.675-6.901 33.213-14.736 47.367-26.078 9.132-7.834 19.291-17.742 18.614-30.789 1.066-20.242 1.745-40.675 0.505-60.859-22.142-25.615-36.045-57.74-43.103-90.642-15.822-9.151-26.233-25.204-31.236-42.48-5.856-20.126-9.638-42.636-1.124-62.586 1.823-5.41 6.398-9.46 8.24-14.774-8.745-38.059-15.026-77.107-13.476-116.31 0.971-29.298 6.534-58.864 19.389-85.347 14.077-29.49 38.275-53.901 67.514-68.421 35.308-18.147 75.676-23.519 114.939-23.519 34.145 1.106 71.954 8.94 94.949 36.391 12.255 2.794 24.429 6.476 35.482 12.583 22.318 11.711 39.36 31.971 49.521 54.812 8.725 20.144 12.971 42.015 14.057 63.885 2.269 43.023-5.215 86.009-17.043 127.247 12.855 15.782 15.356 37.477 11.382 56.924-3.607 23.751-13.516 49.015-35.484 61.385-7.017 32.087-19.679 63.788-40.948 89.167-2.386 2.25-1.628 5.662-1.824 8.608 0.059 20.708-0.544 41.551 1.901 62.159 7.794 19.099 26.931 30.073 44.323 39.323 54.018 26.25 113.795 41.623 162.716 77.707 44.34-44.883 79.36-98.996 101.812-157.974 35.191-91.61 39.456-194.679 12.292-288.966-31.934-112.923-109.646-211.861-211.574-269.949-60.301-34.801-128.724-55.354-198.214-59.62-64.566-4.167-130.026 5.508-190.539 28.423zM436.631 195.353c-27.804 8.434-53.262 26.58-67.57 52.252-14.58 25.535-19.137 55.471-19.313 84.534-0.465 41.066 8.512 81.43 18.343 121.082-5.643 5.449-13.398 9.441-16.423 17.082-3.238 10.003-0.388 20.609 1.823 30.537 2.307 7.715 4.847 16.363 11.613 21.365 5.565 2.132 11.633 2.56 17.43 3.84 2.636 14.057 4.033 28.382 8.647 41.995 5.449 16.439 12.779 32.417 22.743 46.628 4.345 6.651 11.303 10.723 17.158 15.858-0.29 27.959 0.971 55.958-1.163 83.855-0.581 6.455 0.059 13.36-3.257 19.234-5.915 13.65-15.163 25.708-26.447 35.383-18.846 16.246-41.629 27.047-64.468 36.45-20.379 9.074-41.474 16.345-61.851 25.398-21.31 8.958-42.753 18.343-61.522 32.031 31.351 26.892 66.409 49.421 103.947 66.657 88.357 41.163 190.15 51.902 285.351 31.543 35.424-7.697 68.774-22.567 101.229-38.349 33.837-17.858 67.494-36.587 97.585-60.378-48.278-31.993-105.535-45.776-156.45-72.571-25.634-13.61-49.947-33.812-59.33-62.16-3.122-32.396-2.251-64.989-1.958-97.503 5.836-4.478 12.137-8.705 16.345-14.87 10.236-14.677 17.41-31.274 22.764-48.258 4.302-13.299 5.621-27.26 8.142-40.947 5.854-1.36 12.061-1.59 17.644-3.939 6.652-5.098 9.211-13.648 11.459-21.365 2.154-9.905 5.177-20.513 1.824-30.499-3.179-7.851-11.284-11.826-16.985-17.622 15.066-48.122 26.989-98.707 21.502-149.446-2.812-25.379-11.903-51.883-32.613-68.17-13.999-10.838-31.741-14.349-48.822-17.004-5.235-7.037-9.735-15.122-17.548-19.639-17.334-10.566-38.237-12.853-58.11-13.435-24.177 0.582-48.645 2.715-71.719 10.431z" p-id="91377"></path></svg>