<?xml version="1.0" standalone="no"?><!DOCTYPE svg PUBLIC "-//W3C//DTD SVG 1.1//EN" "http://www.w3.org/Graphics/SVG/1.1/DTD/svg11.dtd"><svg t="1509346528368" class="icon" style="" viewBox="0 0 1024 1024" version="1.1" xmlns="http://www.w3.org/2000/svg" p-id="3094" xmlns:xlink="http://www.w3.org/1999/xlink" width="200" height="200"><defs><style type="text/css"></style></defs><path d="M609.621333 520.2944l47.581867 48.2304-79.086933 80.1792-47.581867-48.2304-155.921067 158.037333-103.492267-104.925867 155.921067-158.071467-54.647467-55.432533c-214.084267-248.490667-169.0624-331.741867-169.0624-331.741867l302.7968 306.9952 303.172267-307.336533 105.233067-5.256533-1.774933 110.216533L609.621333 520.2944zM213.435733 633.5488l172.578133 174.865067-41.437867 41.949867-57.719467-58.538667-127.658667 129.4336-57.002667-57.856 127.658667-129.365333L172.100267 675.498667 213.435733 633.5488zM718.813867 570.641067l-147.7632 149.742933-27.784533-28.2624 147.626667-149.7088L718.813867 570.641067zM921.838933 821.213867l-94.378667 95.6416-195.072-197.768533 94.3104-95.6416L921.838933 821.213867z" p-id="3095"></path></svg>