<?xml version="1.0" standalone="no"?><!DOCTYPE svg PUBLIC "-//W3C//DTD SVG 1.1//EN" "http://www.w3.org/Graphics/SVG/1.1/DTD/svg11.dtd"><svg t="1509346566823" class="icon" style="" viewBox="0 0 1024 1024" version="1.1" xmlns="http://www.w3.org/2000/svg" p-id="3312" xmlns:xlink="http://www.w3.org/1999/xlink" width="200" height="200"><defs><style type="text/css"></style></defs><path d="M843.337849 63.814398 180.662151 63.814398c-64.36903 0-116.550483 51.948139-116.550483 116.028597l0 664.315034c0 64.080457 52.18043 116.027573 116.550483 116.027573l662.675698 0c64.368006 0 116.549459-51.947116 116.549459-116.027573L959.887308 179.842994C959.886285 115.762537 907.705855 63.814398 843.337849 63.814398zM731.697189 298.538327l57.749262 0c-1.686409 58.611909-11.730159 107.142206-30.129204 145.628752l-52.727898 0C721.654462 393.950374 730.010781 345.420077 731.697189 298.538327zM704.078155 481.829863c38.485523 18.438954 69.440535 42.684148 92.900853 72.813353l0 95.411023c-26.796296-40.172955-57.749262-73.637114-92.900853-100.43341L704.078155 481.829863zM470.570937 298.538327c1.647523 50.216705 10.042727 97.922217 25.107841 143.117558l-50.216705 0c-16.751522-40.172955-27.619034-87.87949-32.640398-143.117558L470.570937 298.538327zM490.657414 471.786113l0 85.368296c-16.751522 33.503045-45.195342 63.634296-85.368296 90.38966l0-80.346933C432.045505 548.798091 460.52821 516.980431 490.657414 471.786113zM282.25906 798.194184l-50.216705 0 0-52.726875 25.108864 0c20.086477 1.6465 29.266557-6.66991 27.619034-25.108864L284.770254 569.70833c-6.708795 1.686409-18.438954 4.198625-35.151591 7.532557-10.042727 1.686409-18.438954 3.373841-25.107841 5.021364l0-65.281819c8.356318-1.647523 20.910239-3.334955 37.662785-5.021364 10.042727-3.334955 17.575284-5.021364 22.597671-5.021364l0-138.095171-55.238069 0 0-52.727898 55.238069 0 0-90.38966 72.814376 0 0 90.38966 45.195342 0 0 52.727898-45.195342 0L357.585653 486.851227c15.065114-5.021364 31.777751-11.691273 50.216705-20.086477l0 55.238069c-16.751522 10.042727-33.504068 17.576307-50.216705 22.597671L357.585653 727.891002C359.231129 776.420275 334.123288 799.841707 282.25906 798.194184zM485.636051 790.661627l-82.857103 0 0-47.705512 62.770626 0c28.442796 0 41.820478-13.377682 40.172955-40.172955L505.722528 230.746338l67.791989 0 0 482.07955C576.850495 768.063957 547.544029 793.995559 485.636051 790.661627zM799.489178 790.661627l-90.390683 0c-58.611909 1.647523-87.054705-24.284079-85.368296-77.835739l0-482.07955 65.281819 0 0 472.036823c-1.686409 26.795273 11.692297 40.172955 40.175001 40.172955l70.302159 0L799.489178 790.661627z" p-id="3313"></path></svg>