<?xml version="1.0" standalone="no"?><!DOCTYPE svg PUBLIC "-//W3C//DTD SVG 1.1//EN" "http://www.w3.org/Graphics/SVG/1.1/DTD/svg11.dtd"><svg t="1509346554082" class="icon" style="" viewBox="0 0 1024 1024" version="1.1" xmlns="http://www.w3.org/2000/svg" p-id="3203" xmlns:xlink="http://www.w3.org/1999/xlink" width="200" height="200"><defs><style type="text/css"></style></defs><path d="M853.333333 967.111111H199.111111a113.777778 113.777778 0 0 1-113.777778-113.777778V170.666667a113.777778 113.777778 0 0 1 113.777778-113.777778h654.222222a113.777778 113.777778 0 0 1 113.777778 113.777778v682.666666a113.777778 113.777778 0 0 1-113.777778 113.777778z m56.888889-768c0-62.833778-22.499556-85.333333-85.333333-85.333333H227.555556c-62.833778 0-85.333333 22.499556-85.333334 85.333333v625.777778c0 62.833778 22.499556 85.333333 85.333334 85.333333h597.333333c62.833778 0 85.333333-22.499556 85.333333-85.333333V199.111111z m-85.333333 483.555556H540.444444a28.444444 28.444444 0 0 1 0-56.888889h284.444445a28.444444 28.444444 0 0 1 0 56.888889z m0-284.444445H540.444444a28.444444 28.444444 0 0 1 0-56.888889h284.444445a28.444444 28.444444 0 0 1 0 56.888889z m-486.997333 43.662222l-2.446223-2.417777-10.780444 10.752-100.551111-100.551111a28.416 28.416 0 1 1 40.220444-40.220445l62.776889 62.776889 111.331556-111.36a28.444444 28.444444 0 0 1 40.220444 40.248889l-140.771555 140.771555z m-0.113778 105.671112a113.777778 113.777778 0 1 1 0 227.555555 113.777778 113.777778 0 0 1 0-227.555555zM341.333333 711.111111a56.888889 56.888889 0 1 0 0-113.777778 56.888889 56.888889 0 0 0 0 113.777778z" fill="#5A5A5A" p-id="3204"></path></svg>