<?xml version="1.0" standalone="no"?><!DOCTYPE svg PUBLIC "-//W3C//DTD SVG 1.1//EN" "http://www.w3.org/Graphics/SVG/1.1/DTD/svg11.dtd"><svg t="1509346458094" class="icon" style="" viewBox="0 0 1024 1024" version="1.1" xmlns="http://www.w3.org/2000/svg" p-id="2760" xmlns:xlink="http://www.w3.org/1999/xlink" width="200" height="200"><defs><style type="text/css"></style></defs><path d="M512.998747 64.363913c-246.730381 0-446.806185 200.075805-446.806185 446.804139 0 246.793826 200.075805 446.807209 446.806185 446.807209 246.790756 0 446.807209-200.013383 446.807209-446.807209C959.805956 264.439718 759.790526 64.363913 512.998747 64.363913zM512.998747 926.794098c-229.574652 0-415.625022-186.051393-415.625022-415.625022 0-229.540883 186.051393-415.622976 415.625022-415.622976S928.623769 281.627169 928.623769 511.170099C928.624792 740.742704 742.573399 926.794098 512.998747 926.794098z" p-id="2761"></path><path d="M282.130635 691.658799l32.085766 31.911804 54.027497-43.100634-42.779316-42.541909L282.130635 691.658799zM695.219905 514.864234l-57.83829 57.524135-77.155241-80.108502L684.606173 373.778962l21.941732-75.009368-75.41869 21.819958L512.995677 443.246103l-118.130468-122.655528-75.41869-21.819958 21.944801 75.009368 124.380822 118.500904-77.158311 80.108502-57.83522-57.524135-21.883403 64.311725 117.647467 117.009947 64.662719-21.7647-59.771315-59.449997 81.564667-77.69964 81.561597 77.69964-59.767222 59.449997 64.657602 21.7647 117.647467-117.010971L695.219905 514.864234zM700.534957 637.928061l-42.782386 42.541909 54.030567 43.09961 32.085766-31.911804L700.534957 637.928061z" p-id="2762"></path></svg>