<?xml version="1.0" standalone="no"?><!DOCTYPE svg PUBLIC "-//W3C//DTD SVG 1.1//EN" "http://www.w3.org/Graphics/SVG/1.1/DTD/svg11.dtd"><svg t="1509084692361" class="icon" style="" viewBox="0 0 1024 1024" version="1.1" xmlns="http://www.w3.org/2000/svg" p-id="17936" xmlns:xlink="http://www.w3.org/1999/xlink" width="200" height="200"><defs><style type="text/css"></style></defs><path d="M346.176 83.84a466.432 466.432 0 0 0-275.392 245.568 23.296 23.296 0 1 0 42.24 19.648 419.904 419.904 0 0 1 247.808-221.12 23.296 23.296 0 1 0-14.72-44.16zM675.456 83.84a466.816 466.816 0 0 1 275.584 245.76 23.296 23.296 0 1 1-42.24 19.648 420.224 420.224 0 0 0-248-221.312 23.296 23.296 0 1 1 14.72-44.16z" fill="#040000" p-id="17937"></path><path d="M510.784 897.152a372.352 372.352 0 1 1 0-744.704 372.352 372.352 0 0 1 0 744.704z m0-46.528a325.76 325.76 0 1 0 0-651.648 325.76 325.76 0 0 0 0 651.648z" fill="#040000" p-id="17938"></path><path d="M750.464 788.864l89.728 106.944a23.296 23.296 0 0 1-35.648 29.888l-89.728-106.88a23.296 23.296 0 1 1 35.648-29.952zM271.168 788.864l-89.792 106.944a23.296 23.296 0 0 0 35.648 29.888l89.792-106.88a23.296 23.296 0 1 0-35.648-29.952zM540.736 538.816V315.328a23.296 23.296 0 0 0-46.528 0v232.704c0 8.96 4.928 16.64 12.224 20.48a23.36 23.36 0 0 0 2.688 4.032l44.928 53.44 44.8 53.504a23.296 23.296 0 0 0 35.712-29.888L544.768 542.592a23.36 23.36 0 0 0-4.032-3.84z" fill="#040000" p-id="17939"></path></svg>