<?xml version="1.0" standalone="no"?><!DOCTYPE svg PUBLIC "-//W3C//DTD SVG 1.1//EN" "http://www.w3.org/Graphics/SVG/1.1/DTD/svg11.dtd"><svg t="1509243519403" class="icon" style="" viewBox="0 0 1024 1024" version="1.1" xmlns="http://www.w3.org/2000/svg" p-id="8820" xmlns:xlink="http://www.w3.org/1999/xlink" width="200" height="200"><defs><style type="text/css"></style></defs><path d="M1023.04 264.512c0-123.008-99.776-222.784-222.784-222.784-64.32 0-122.112 27.456-162.816 71.104C597.696 100.8 555.648 94.208 512 94.208S426.24 100.8 386.496 112.896C345.856 69.248 288.064 41.792 223.744 41.792c-123.008 0-222.784 99.776-222.784 222.784 0 71.936 34.24 135.744 87.168 176.512C82.56 468.736 79.552 497.344 79.552 526.656c0 118.4 47.68 225.536 124.8 303.68l-84.736 84.736c-15.36 15.296-15.36 40.256 0 55.616 15.36 15.36 40.256 15.36 55.616 0l89.536-89.6C334.848 930.112 419.968 959.04 512 959.04c92.224 0 177.536-29.056 247.744-78.336l89.6 89.6c14.912 14.912 39.104 14.912 53.952 0 14.912-14.912 14.912-39.104 0-53.952l-84.8-84.8c77.824-78.208 125.952-185.984 125.952-304.896 0-29.376-3.008-57.92-8.512-85.632C988.8 400.256 1023.04 336.512 1023.04 264.512zM114.112 357.184C92.864 332.032 79.552 300.032 79.552 264.576c0-79.616 64.576-144.128 144.128-144.128 30.592 0 58.88 9.728 82.176 25.92C220.48 192.768 152.512 267.136 114.112 357.184zM689.536 595.392 506.112 595.392c-21.696 0-39.296-17.6-39.296-39.296 0-0.256 0.128-0.448 0.128-0.768L466.944 372.416c0-21.696 17.6-39.296 39.296-39.296 21.696 0 39.296 17.6 39.296 39.296l0 144.32 144 0c21.696 0 39.296 17.6 39.296 39.296S711.232 595.392 689.536 595.392zM909.888 357.184c-38.4-90.048-106.368-164.416-191.808-210.816 23.296-16.192 51.584-25.92 82.24-25.92 79.616 0 144.128 64.576 144.128 144.128C944.448 300.032 931.136 332.032 909.888 357.184z" p-id="8821"></path></svg>