<?xml version="1.0" standalone="no"?><!DOCTYPE svg PUBLIC "-//W3C//DTD SVG 1.1//EN" "http://www.w3.org/Graphics/SVG/1.1/DTD/svg11.dtd"><svg t="1508920145152" class="icon" style="" viewBox="0 0 1024 1024" version="1.1" xmlns="http://www.w3.org/2000/svg" p-id="1587" xmlns:xlink="http://www.w3.org/1999/xlink" width="200" height="200"><defs><style type="text/css"></style></defs><path d="M723.2 300.8c-16.64-16.64-44.224-16.128-60.608 0.256L512 451.648 361.408 301.056C345.024 284.672 317.44 284.16 300.8 300.8 284.608 316.992 284.224 344.576 300.992 361.408L451.648 512l-150.592 150.592c-16.832 16.832-16.384 44.352-0.192 60.608 16.576 16.64 44.096 16.128 60.48-0.256L512 572.352l150.592 150.592c16.384 16.384 43.968 16.896 60.608 0.256 16.192-16.192 16.576-43.776-0.192-60.608L572.352 512l150.592-150.592C739.776 344.576 739.328 316.992 723.2 300.8z" p-id="1588"></path><path d="M512 0C229.184 0 0 229.184 0 512s229.184 512 512 512 512-229.184 512-512S794.816 0 512 0zM512 972.8c-254.464 0-460.8-206.336-460.8-460.8S257.536 51.2 512 51.2s460.8 206.336 460.8 460.8S766.464 972.8 512 972.8z" p-id="1589"></path></svg>