<svg width="1024" height="1024" xmlns="http://www.w3.org/2000/svg" stroke="null" style="vector-effect: non-scaling-stroke;" class="icon">
 <defs stroke="null">
  <style stroke="null" style="vector-effect: non-scaling-stroke;" type="text/css"/>
 </defs>
 <g stroke="null">
  <title stroke="null">background</title>
  <rect stroke="null" fill="none" id="canvas_background" height="402" width="582" y="-1" x="-1"/>
 </g>
 <g stroke="null">
  <title stroke="null">Layer 1</title>
  <defs stroke="null">
   <style stroke="null" style="vector-effect: non-scaling-stroke;" type="text/css"/>
  </defs>
  <path stroke="null" id="svg_8" d="m-3,228" opacity="0.5" fill-opacity="null" stroke-opacity="null" stroke-width="null" fill="null"/>
  <defs stroke="null">
   <style stroke="null" style="vector-effect: non-scaling-stroke;" type="text/css"/>
  </defs>
  <g stroke="null" id="svg_22">
   <path stroke="null" id="svg_14" d="m988.058139,1035.16711l0,0z"/>
   <path stroke="null" id="svg_15" d="m399.756869,814.756339l0,0z"/>
   <path stroke="null" id="svg_17" d="m163.76008,216.638974l430.714876,0l0,70.78312l-430.714876,0l0,-70.78312l0,0z"/>
   <path stroke="null" id="svg_18" d="m163.76008,398.053489l344.520861,0l0,70.78312l-344.520861,0l0,-70.78312z"/>
   <path stroke="null" id="svg_19" d="m163.76008,605.946134l172.26043,0l0,70.78312l-172.26043,0l0,-70.78312l0,0z"/>
   <path stroke="null" id="svg_20" d="m374.811007,933.383605l-301.455753,0l0,-862.767586l693.380132,0l0,247.74092c17.226043,0 56.01654,4.391175 73.242583,4.391175l0,-287.523655c0,-17.69578 -17.226043,-35.39156 -34.452086,-35.39156l-770.961126,0c-17.226043,0 -34.452086,17.69578 -34.452086,35.39156l0,937.941881c0,17.69578 17.226043,35.39156 34.452086,35.39156l383.311358,0c-17.226043,-22.086955 -30.177475,-57.478515 -43.065108,-75.174295l0,0l0,0z"/>
   <path stroke="null" id="svg_21" d="m929.592328,615.182424c-6.311469,-20.571862 -19.122808,-27.36159 -38.151415,-34.252657l-120.859916,-20.571862l-57.274224,-116.337428c-12.717138,-34.252657 -63.585692,-34.252657 -82.7085,0l-57.274224,116.337428l-120.577313,20.571862c-19.122808,0 -31.839947,13.680795 -38.151415,34.252657c-6.311469,20.571862 0,34.252657 12.717138,47.933453l89.019969,88.975838l-12.717138,136.807951c0,20.571862 6.311469,34.252657 19.122808,47.933453c12.717138,13.680795 31.839947,13.680795 50.868554,6.789728l108.142777,-61.614248l108.142777,61.614248c6.311469,6.891067 12.717138,6.891067 19.122808,6.891067c12.717138,0 19.122808,-6.891067 25.434277,-6.891067c12.717138,-13.680795 19.122808,-27.36159 19.122808,-47.933453l-19.122808,-130.018223l89.019969,-88.975838c6.123067,-20.470523 6.123067,-41.042385 6.123067,-61.512908l0,0zm-184.351407,95.765566c-12.717138,13.680795 -12.717138,27.36159 -12.717138,41.042385l6.311469,61.614248l-44.557085,-34.252657c-6.40567,-6.789728 -12.717138,-6.789728 -19.122808,-6.789728c-6.40567,0 -12.717138,0 -19.122808,6.789728l-50.868554,27.36159l6.311469,-54.72318c0,-13.680795 0,-34.252657 -12.717138,-41.042385l-38.151415,-41.042385l57.274224,-6.789728c12.717138,0 25.434277,-13.680795 31.839947,-27.36159l25.434277,-54.72318l25.434277,54.72318c6.311469,13.680795 19.122808,20.571862 31.839947,27.36159l57.274224,6.789728l-44.462884,41.042385l0,0z"/>
  </g>
 </g>
</svg>