<?xml version="1.0" standalone="no"?><!DOCTYPE svg PUBLIC "-//W3C//DTD SVG 1.1//EN" "http://www.w3.org/Graphics/SVG/1.1/DTD/svg11.dtd"><svg t="1509332882084" class="icon" style="" viewBox="0 0 1024 1024" version="1.1" xmlns="http://www.w3.org/2000/svg" p-id="91250" xmlns:xlink="http://www.w3.org/1999/xlink" width="200" height="200"><defs><style type="text/css"></style></defs><path d="M991.04 1024 991.04 1024z" p-id="91251"></path><path d="M400.896 808.768 400.896 808.768z" p-id="91252"></path><path d="M721.472 406.144c-164.16 0-302.4 133.952-302.4 302.4s133.952 302.4 302.4 302.4 302.4-133.952 302.4-302.4C1028.224 540.096 889.984 406.144 721.472 406.144L721.472 406.144zM721.472 959.168c-138.24 0-250.56-112.32-250.56-250.56 0-138.24 112.32-250.56 250.56-250.56 138.24 0 250.56 112.32 250.56 250.56C972.032 846.848 859.712 959.168 721.472 959.168L721.472 959.168z" p-id="91253"></path><path d="M164.16 224.704 596.224 224.704 596.224 293.824 164.16 293.824 164.16 224.704 164.16 224.704Z" p-id="91254"></path><path d="M164.16 401.856 509.76 401.856 509.76 470.976 164.16 470.976 164.16 401.856Z" p-id="91255"></path><path d="M164.16 604.864 336.96 604.864 336.96 673.984 164.16 673.984 164.16 604.864 164.16 604.864Z" p-id="91256"></path><path d="M375.872 924.608 73.472 924.608 73.472 82.112l695.552 0 0 241.92c17.28 0 56.192 4.288 73.472 4.288L842.496 47.552c0-17.28-17.28-34.56-34.56-34.56L34.56 12.992C17.28 12.992 0 30.272 0 47.552l0 915.904c0 17.28 17.28 34.56 34.56 34.56l384.512 0C401.792 976.448 388.8 941.888 375.872 924.608L375.872 924.608 375.872 924.608z" p-id="91257"></path><path d="M894.272 652.416c-4.288-12.992-12.992-17.28-25.92-21.632l-82.112-12.992-38.912-73.472c-8.64-21.632-43.2-21.632-56.192 0l-38.912 73.472L570.304 630.784c-12.992 0-21.632 8.64-25.92 21.632-4.288 12.992 0 21.632 8.64 30.272l60.48 56.192-8.64 86.4c0 12.992 4.288 21.632 12.992 30.272 8.64 8.64 21.632 8.64 34.56 4.288l73.472-38.912 73.472 38.912c4.288 4.352 8.64 4.352 12.992 4.352 8.64 0 12.992-4.352 17.28-4.352 8.64-8.64 12.992-17.28 12.992-30.272l-12.992-82.112 60.48-56.192C894.272 678.336 894.272 665.344 894.272 652.416L894.272 652.416zM769.024 712.896c-8.64 8.64-8.64 17.28-8.64 25.92l4.288 38.912-30.272-21.632c-4.352-4.288-8.64-4.288-12.992-4.288-4.352 0-8.64 0-12.992 4.288l-34.56 17.28 4.288-34.56c0-8.64 0-21.632-8.64-25.92l-25.92-25.92 38.912-4.288c8.64 0 17.28-8.64 21.632-17.28l17.28-34.56 17.28 34.56c4.288 8.64 12.992 12.992 21.632 17.28l38.912 4.288L769.024 712.896 769.024 712.896z" p-id="91258"></path></svg>