<?xml version="1.0" standalone="no"?><!DOCTYPE svg PUBLIC "-//W3C//DTD SVG 1.1//EN" "http://www.w3.org/Graphics/SVG/1.1/DTD/svg11.dtd"><svg t="1509332390290" class="icon" style="" viewBox="0 0 1024 1024" version="1.1" xmlns="http://www.w3.org/2000/svg" p-id="61554" xmlns:xlink="http://www.w3.org/1999/xlink" width="200" height="200"><defs><style type="text/css"></style></defs><path d="M89.6 390.4c-38.4 0-76.8 32-76.8 70.4l0 441.6c0 38.4 32 70.4 76.8 70.4 38.4 0 76.8-32 76.8-70.4L166.4 467.2C160 422.4 128 390.4 89.6 390.4z" p-id="61555"></path><path d="M876.8 352c-32 0-128 12.8-179.2 19.2C697.6 345.6 704 320 723.2 268.8c12.8-51.2 38.4-108.8 32-166.4C736-6.4 614.4-32 576 70.4c0 6.4-51.2 128-51.2 128C486.4 256 480 275.2 384 339.2 300.8 403.2 281.6 416 268.8 428.8 256 441.6 243.2 454.4 243.2 467.2l0 428.8c0 12.8 6.4 25.6 19.2 38.4 64 44.8 294.4 83.2 409.6 83.2 57.6 0 96 0 140.8-25.6 25.6-12.8 25.6-32 38.4-44.8 57.6-51.2 38.4-121.6 57.6-140.8 64-64 51.2-147.2 64-166.4 25.6-64 19.2-57.6 25.6-102.4C1036.8 403.2 972.8 358.4 876.8 352z" p-id="61556"></path></svg>