<?xml version="1.0" standalone="no"?><!DOCTYPE svg PUBLIC "-//W3C//DTD SVG 1.1//EN" "http://www.w3.org/Graphics/SVG/1.1/DTD/svg11.dtd"><svg t="1509084671456" class="icon" style="" viewBox="0 0 1024 1024" version="1.1" xmlns="http://www.w3.org/2000/svg" p-id="14258" xmlns:xlink="http://www.w3.org/1999/xlink" width="200" height="200"><defs><style type="text/css"></style></defs><path d="M977.728 512.832a20.608 20.608 0 0 1-20.48-20.736C957.184 244.032 757.376 42.24 512 42.24 266.496 42.24 66.816 244.032 66.816 492.16c0 11.456-9.216 20.736-20.48 20.736s-20.48-9.28-20.48-20.736C25.792 221.184 243.84 0.832 512 0.832s486.208 220.352 486.208 491.264a20.608 20.608 0 0 1-20.48 20.736z" p-id="14259"></path><path d="M114.048 457.088a47.552 47.552 0 0 0-47.232 47.744v213.824c0 26.368 21.184 47.744 47.232 47.744h59.264a47.552 47.552 0 0 0 47.232-47.744V504.832a47.552 47.552 0 0 0-47.232-47.744h-59.264z m59.264 350.784h-59.264c-48.64 0-88.256-40-88.256-89.216V504.832c0-49.216 39.616-89.216 88.32-89.216h59.2c48.64 0 88.256 40 88.256 89.216v213.824c0 49.216-39.616 89.216-88.256 89.216zM850.688 457.088a47.552 47.552 0 0 0-47.36 47.744v213.824c0 26.368 21.248 47.744 47.36 47.744h59.264a47.552 47.552 0 0 0 47.232-47.744V504.832a47.552 47.552 0 0 0-47.232-47.744h-59.264z m59.264 350.784h-59.264c-48.64 0-88.32-40-88.32-89.216V504.832c0-49.216 39.68-89.216 88.32-89.216h59.264c48.64 0 88.256 40 88.256 89.216v213.824c0 49.216-39.616 89.216-88.256 89.216z" p-id="14260"></path><path d="M628.8 958.528a20.48 20.48 0 0 1-17.152-9.408 20.864 20.864 0 0 1 5.952-28.672l227.2-150.656a20.48 20.48 0 0 1 28.416 6.016c6.208 9.6 3.584 22.4-5.888 28.672L640 955.136a20.48 20.48 0 0 1-11.264 3.392z" p-id="14261"></path><path d="M476.352 913.92a30.464 30.464 0 0 0-30.272 30.592v6.656c0 16.832 13.568 30.592 30.272 30.592h101.632a30.464 30.464 0 0 0 30.336-30.592v-6.656a30.464 30.464 0 0 0-30.336-30.592H476.352z m101.632 109.248H476.352a71.744 71.744 0 0 1-71.232-72v-6.656c0-39.68 32-72 71.232-72h101.632c39.36 0 71.36 32.32 71.36 72v6.656c0 39.68-32 72-71.36 72z" p-id="14262"></path></svg>