<?xml version="1.0" standalone="no"?><!DOCTYPE svg PUBLIC "-//W3C//DTD SVG 1.1//EN" "http://www.w3.org/Graphics/SVG/1.1/DTD/svg11.dtd"><svg t="1508919944125" class="icon" style="" viewBox="0 0 1024 1024" version="1.1" xmlns="http://www.w3.org/2000/svg" p-id="1681" xmlns:xlink="http://www.w3.org/1999/xlink" width="200" height="200"><defs><style type="text/css"></style></defs><path d="M847.979 959.993h-671.958v-727.965h671.958v727.902zM680.021 64.070v112.014h-336.042v-112.077h336.042zM736.028 176.084v-112.077c0-30.807-25.2-56.007-56.070-56.007h-335.916c-30.807 0-56.007 25.2-56.007 56.007v112.014h-280.035v56.007h112.014v727.902c0 30.807 25.2 56.007 56.007 56.007h671.958c30.87 0 56.070-25.2 56.070-56.007v-727.902h111.951v-56.070h-279.972z" p-id="1682"></path><path d="M680.021 344.168h56.007v447.489h-56.007zM539.972 791.72v-447.615h-55.944v447.489h27.972zM287.972 344.168h56.007v447.489h-56.007z" p-id="1683"></path></svg>