<?xml version="1.0" standalone="no"?><!DOCTYPE svg PUBLIC "-//W3C//DTD SVG 1.1//EN" "http://www.w3.org/Graphics/SVG/1.1/DTD/svg11.dtd"><svg t="1509243569921" class="icon" style="" viewBox="0 0 1024 1024" version="1.1" xmlns="http://www.w3.org/2000/svg" p-id="9186" xmlns:xlink="http://www.w3.org/1999/xlink" width="200" height="200"><defs><style type="text/css"></style></defs><path d="" p-id="9187"></path><path d="M799.315 69.264l-202.751-0.251c0-23.3-16.473-42.404-36.579-42.404l-90.759-0.063c-20.169 0-36.642 19.041-36.705 42.341l-202.751-0.251c-44.784-0.063-81.426 38.020-81.489 84.621l732.335 0.815c0.063-46.602-36.517-84.747-81.301-84.809z" p-id="9188"></path><path d="M204.026 945.787c0 43.657 32.57 79.422 72.407 79.422h487.242c39.836 0 72.407-35.765 72.407-79.422v-712.543h-632.057v712.543zM671.099 362.274h90.070v566.54h-90.070v-566.54zM477.806 362.274h90.070v566.54h-90.070v-566.54zM286.142 362.274h90.070v566.54h-90.070v-566.54z" p-id="9189"></path></svg>