<?xml version="1.0" standalone="no"?><!DOCTYPE svg PUBLIC "-//W3C//DTD SVG 1.1//EN" "http://www.w3.org/Graphics/SVG/1.1/DTD/svg11.dtd"><svg t="1509243645927" class="icon" style="" viewBox="0 0 1024 1024" version="1.1" xmlns="http://www.w3.org/2000/svg" p-id="16270" xmlns:xlink="http://www.w3.org/1999/xlink" width="200" height="200"><defs><style type="text/css"></style></defs><path d="M974.247 45.077c14.576 14.577 17.298 35.47 6.098 46.695L520.567 551.526c-11.201 11.225-32.093 8.503-46.671-6.074-14.576-14.578-17.297-35.47-6.097-46.695L927.577 39.003C938.776 27.778 959.67 30.524 974.247 45.077L974.247 45.077zM867.586 420.014 867.586 918.16c0 10.388-8.241 18.839-18.371 18.839L116.037 936.999c-10.129 0-18.37-8.451-18.37-18.839L97.667 177.458c0-10.377 8.241-18.819 18.37-18.819l494.565 0 0-54.911L116.037 103.728c-40.407 0-73.281 33.075-73.281 73.73l0 740.7c0 40.666 32.874 73.75 73.281 73.75l733.178 0c40.408 0 73.282-33.084 73.282-73.75L922.497 420.014 867.586 420.014 867.586 420.014z" p-id="16271"></path></svg>