<?xml version="1.0" standalone="no"?><!DOCTYPE svg PUBLIC "-//W3C//DTD SVG 1.1//EN" "http://www.w3.org/Graphics/SVG/1.1/DTD/svg11.dtd"><svg t="1511171656703" class="icon" style="" viewBox="0 0 1024 1024" version="1.1" xmlns="http://www.w3.org/2000/svg" p-id="3679" xmlns:xlink="http://www.w3.org/1999/xlink" width="200" height="200"><defs><style type="text/css"></style></defs><path d="M707.2 598.2c-31.6-20.9-66.1-37.3-102.3-48.6 84.4-42.8 142.2-129.1 142.2-228.4 0-142.2-117.9-257.3-263.4-257.3-145.5 0-263.4 115.2-263.4 257.3 0 99.4 57.7 185.6 142.1 228.4-160.3 50-276.6 196.2-277.6 369.2 0 0.2 0.1 2.2 0.1 2.2 0.9 13.3 12.1 23.9 26 23.9s25.4-10.6 26.2-23.9c0-186.9 155.2-338.5 346.5-338.5 71.7 0 138.3 21.3 193.6 57.7l0.1-0.1c4.3 3.1 9.7 5 15.4 5 14.4 0 26.2-11.5 26.2-25.6 0-8.9-4.6-16.7-11.7-21.3z m-434.3-277c0-113.7 94.3-205.9 210.7-205.9 116.4 0 210.8 92.2 210.8 205.9S600 527.1 483.6 527.1c-116.3 0-210.7-92.2-210.7-205.9z" p-id="3680"></path><path d="M790.5 960.2c-13.7 0-24.8-11.1-24.8-24.8v-248c0-13.7 11.1-24.8 24.8-24.8s24.8 11.1 24.8 24.8v248c0 13.7-11.1 24.8-24.8 24.8z" p-id="3681"></path><path d="M914.5 836.2h-248c-13.7 0-24.8-11.1-24.8-24.8s11.1-24.8 24.8-24.8h248c13.7 0 24.8 11.1 24.8 24.8s-11.1 24.8-24.8 24.8z" p-id="3682"></path></svg>