<?xml version="1.0" standalone="no"?><!DOCTYPE svg PUBLIC "-//W3C//DTD SVG 1.1//EN" "http://www.w3.org/Graphics/SVG/1.1/DTD/svg11.dtd"><svg t="1509084621605" class="icon" style="" viewBox="0 0 1024 1024" version="1.1" xmlns="http://www.w3.org/2000/svg" p-id="9873" xmlns:xlink="http://www.w3.org/1999/xlink" width="200" height="200"><defs><style type="text/css"></style></defs><path d="M512 0C229.660803 0 0 229.745768 0 512.084965 0 794.339197 229.660803 1024 512 1024 794.254232 1024 1024 794.339197 1024 512.084965 1024 229.745768 794.254232 0 512 0ZM512 962.570196C263.561898 962.570196 61.429804 760.523067 61.429804 512.084965 61.429804 263.561898 263.561898 61.514769 512 61.514769 760.438102 61.514769 962.485231 263.561898 962.485231 512.084965 962.485231 760.523067 760.438102 962.570196 512 962.570196ZM693.145702 770.97378C683.459675 770.97378 673.688682 767.320279 666.296714 759.843346L472.40624 565.952871C465.269167 558.815798 461.275805 549.129771 461.275805 539.103883L461.275805 202.471955C461.275805 181.570528 478.268835 164.492532 499.340192 164.492532 520.326585 164.492532 537.319615 181.570528 537.319615 202.471955L537.319615 523.300365 720.079655 706.060405C734.948556 720.929306 734.948556 744.974444 720.079655 759.843346 712.602722 767.320279 702.916694 770.97378 693.145702 770.97378Z" p-id="9874"></path></svg>