<?xml version="1.0" standalone="no"?><!DOCTYPE svg PUBLIC "-//W3C//DTD SVG 1.1//EN" "http://www.w3.org/Graphics/SVG/1.1/DTD/svg11.dtd"><svg t="1509346347729" class="icon" style="" viewBox="0 0 1024 1024" version="1.1" xmlns="http://www.w3.org/2000/svg" p-id="6388" xmlns:xlink="http://www.w3.org/1999/xlink" width="200" height="200"><defs><style type="text/css"></style></defs><path d="M840.284303 657.413857c0-0.12075 0.028653-0.179079 0.058328-0.297782l-0.028653 0c6.179746-43.120077 5.500271-119.011534-50.871621-197.060121-67.785849-93.901647-72.990385-137.880277-77.635171-176.742377l-0.914836-7.127328c-1.242294-10.233062-7.987928-18.810415-17.658172-22.477944-9.31618-3.608178-20.466124-1.655709-28.15627 5.027503-51.43137 45.073568-66.838268 100.793614-72.399937 148.172691C533.025361 279.498692 543.199071 172.84972 547.664779 126.120442c0.857531-9.494235-3.13541-18.633383-10.646478-24.459065-7.394411-5.767354-17.836227-7.364735-26.235524-4.229325-203.240891 72.577992-203.594955 297.646004-182.892447 434.461019-35.550681-30.40345-63.025429-82.129532-73.228815-107.23942-4.260024-10.32209-14.256702-16.917298-26.441209-17.21201-11.593036 0.295735-21.589714 7.570419-25.493627 18.455327-0.977257 2.838651-96.179526 287.707654 120.756271 438.779372 68.406996 42.116213 137.466861 63.469544 205.40109 63.469544 154.294109-6.861268 259.3457-78.790484 303.296701-235.302097C832.920592 690.892343 837.267597 677.93831 840.284303 657.413857M529.387507 872.779903c-57.81987 0-116.910687-18.394952-175.47143-54.475705-75.919087-52.882418-115.75742-131.019009-118.479415-232.285391-0.621147-23.305799 0.827855-47.676859 4.347005-72.577992 26.855648 40.517809 67.757197 85.769432 120.519888 95.588055 9.228175 1.478677 18.426675-1.419326 24.785499-7.985882 6.445806-6.565533 9.226129-15.85306 7.363711-25.02086l-0.947582-4.375657c-19.962657-93.016487-49.598628-315.925323 97.746208-403.172409-4.139274 128.35739 30.108738 243.493663 104.640222 351.71034 6.770194 9.819646 19.428491 14.254655 31.081902 10.765181 11.652388-3.725858 19.519566-14.432711 19.519566-26.588565l0-7.364735c0-55.423287 0-108.007923 22.151509-151.691841 8.488325 30.611182 27.061332 76.954673 77.753875 147.167804 43.416835 60.184731 45.485961 118.508068 41.522696 152.34164-0.059352 0.294712-18.780739 105.58371-65.805752 153.85204-5.204535 4.554736-11.652388 9.875928-19.253506 15.496949-5.856381 3.431146-9.552563 6.154163-12.125155 8.516977-35.667338 23.898293-90.294492 50.04172-159.322635 50.101071L529.387507 872.780927z" p-id="6389"></path></svg>