<?xml version="1.0" standalone="no"?><!DOCTYPE svg PUBLIC "-//W3C//DTD SVG 1.1//EN" "http://www.w3.org/Graphics/SVG/1.1/DTD/svg11.dtd"><svg t="1509084950317" class="icon" style="" viewBox="0 0 1024 1024" version="1.1" xmlns="http://www.w3.org/2000/svg" p-id="25900" xmlns:xlink="http://www.w3.org/1999/xlink" width="200" height="200"><defs><style type="text/css"></style></defs><path d="M755.038 143.77c53.782 0 104.192 21.3 142.354 59.818 78.454 79.519 78.454 209.093 0 288.613L523.934 870.983c-0.178 0.178-0.709 0.709-2.308 0.709h-0.178l-5.68-0.355-5.148 0.178c-1.42 0-1.776-0.532-2.13-0.709L344.836 705.199 134.677 492.022c-37.985-38.517-58.93-89.637-58.93-144.307s20.945-105.79 58.93-144.307 88.75-59.818 142.532-59.818 104.37 21.3 142.532 59.818l46.682 47.393 5.325 5.503 44.375 44.908 44.375-44.908 5.503-5.503 46.681-47.393c38.163-38.517 88.572-59.64 142.354-59.64m0.002-63.897c-67.628 0-135.078 26.094-186.73 78.454l-46.681 47.393-5.325 5.503-5.325-5.503-46.682-47.393c-51.83-52.184-119.458-78.454-187.084-78.454-67.628 0-135.254 26.27-186.906 78.454C-13 262.873-13 432.561 90.305 537.107l373.814 378.782c12.78 12.958 29.643 19.347 46.506 19.347 1.953 0 3.727-0.178 5.68-0.178 1.776 0.178 3.727 0.178 5.68 0.178 16.862 0 33.547-6.391 46.506-19.347l373.282-378.606c103.126-104.724 103.126-274.236 0-378.782-51.651-52.361-119.102-78.633-186.73-78.633z" fill="" p-id="25901"></path></svg>