<?xml version="1.0" standalone="no"?><!DOCTYPE svg PUBLIC "-//W3C//DTD SVG 1.1//EN" "http://www.w3.org/Graphics/SVG/1.1/DTD/svg11.dtd"><svg t="1509084943491" class="icon" style="" viewBox="0 0 1027 1024" version="1.1" xmlns="http://www.w3.org/2000/svg" p-id="25781" xmlns:xlink="http://www.w3.org/1999/xlink" width="200.5859375" height="200"><defs><style type="text/css"></style></defs><path d="M745.984 91.648c-66.56 0-133.12 25.6-183.808 77.312l-46.08 46.592-5.12 5.632-5.12-5.632-46.08-46.592c-51.2-51.2-117.76-77.312-184.32-77.312S142.336 117.76 91.648 168.96c-101.888 102.912-101.888 269.824 0 372.736l368.128 372.736c12.8 12.8 29.184 18.944 45.568 18.944h11.264c16.384 0 32.768-6.144 45.568-18.944l367.616-372.736c101.376-102.912 101.376-269.824 0-372.736-50.688-51.2-117.248-77.312-183.808-77.312z" fill="" p-id="25782"></path></svg>