<?xml version="1.0" standalone="no"?><!DOCTYPE svg PUBLIC "-//W3C//DTD SVG 1.1//EN" "http://www.w3.org/Graphics/SVG/1.1/DTD/svg11.dtd"><svg t="1509332458371" class="icon" style="" viewBox="0 0 1024 1024" version="1.1" xmlns="http://www.w3.org/2000/svg" p-id="66297" xmlns:xlink="http://www.w3.org/1999/xlink" width="200" height="200"><defs><style type="text/css"></style></defs><path d="M75.093 172.196h873.813q20.098 0 34.334 14.236t14.236 34.334-14.236 34.334-34.334 14.236h-873.813q-20.098 0-34.334-14.236t-14.236-34.334 14.236-34.334 34.334-14.236zM75.093 754.738h873.813q20.098 0 34.334 14.236t14.236 34.334-14.236 34.334-34.334 14.236h-873.813q-20.098 0-34.334-14.236t-14.236-34.334 14.236-34.334 34.334-14.236zM75.093 463.467h873.813q20.098 0 34.334 14.236t14.236 34.334-14.236 34.334-34.334 14.236h-873.813q-20.098 0-34.334-14.236t-14.236-34.334 14.236-34.334 34.334-14.236z" p-id="66298"></path></svg>