<?xml version="1.0" standalone="no"?><!DOCTYPE svg PUBLIC "-//W3C//DTD SVG 1.1//EN" "http://www.w3.org/Graphics/SVG/1.1/DTD/svg11.dtd"><svg t="1509084719541" class="icon" style="" viewBox="0 0 1024 1024" version="1.1" xmlns="http://www.w3.org/2000/svg" p-id="18056" xmlns:xlink="http://www.w3.org/1999/xlink" width="200" height="200"><defs><style type="text/css"></style></defs><path d="M283.584 453.184l165.248 0c11.648 0 21.056-9.472 21.056-21.12 0-11.648-9.408-21.12-21.056-21.12L283.584 410.944c-11.648 0-21.056 9.472-21.056 21.12C262.528 443.712 271.936 453.184 283.584 453.184z" p-id="18057"></path><path d="M283.584 652.416l359.616 0c11.648 0 21.12-9.408 21.12-21.056s-9.472-21.056-21.12-21.056L283.584 610.304c-11.648 0-21.056 9.408-21.056 21.056S271.936 652.416 283.584 652.416z" p-id="18058"></path><path d="M627.712 435.584c4.096 4.032 9.536 6.272 15.296 6.272s11.136-2.24 15.232-6.336l250.88-250.88c4.032-4.096 6.336-9.472 6.336-15.296 0-5.76-2.176-11.2-6.336-15.296-8.256-8.128-22.528-8.128-30.528 0l-250.944 250.88C619.328 413.376 619.328 427.072 627.712 435.584z" p-id="18059"></path><path d="M900.8 362.368c-10.432 0-19.264 7.488-20.928 18.368l-0.128 369.664c0 46.016-34.048 83.456-75.904 83.456L220.096 833.856c-41.792 0-75.904-37.568-75.904-83.776L144.192 279.296c0-46.208 34.112-83.776 76.032-83.776l440.064-0.064 3.328-0.768 2.496-1.28L666.112 193.216c7.68-3.264 12.672-10.496 12.672-18.688s-4.992-15.488-12.672-18.688L666.112 153.344 220.288 153.344c-65.216 0-118.208 56.512-118.208 125.952l0 470.784c0 69.44 52.928 125.952 118.016 125.952l583.744 0c65.088 0 118.016-56.384 118.016-125.632L921.856 383.488C921.856 371.84 912.448 362.368 900.8 362.368z" p-id="18060"></path></svg>