<?xml version="1.0" standalone="no"?><!DOCTYPE svg PUBLIC "-//W3C//DTD SVG 1.1//EN" "http://www.w3.org/Graphics/SVG/1.1/DTD/svg11.dtd"><svg t="1509084540014" class="icon" style="" viewBox="0 0 1024 1024" version="1.1" xmlns="http://www.w3.org/2000/svg" p-id="7779" xmlns:xlink="http://www.w3.org/1999/xlink" width="200" height="200"><defs><style type="text/css"></style></defs><path d="M998.59712 0H25.41312A25.984 25.984 0 0 0 0.00512 26.496v971.008c0 14.656 11.392 26.496 25.408 26.496h973.184c14.08 0 25.408-11.84 25.408-26.496V26.496A25.984 25.984 0 0 0 998.59712 0z m-18.048 965.12a14.208 14.208 0 0 1-13.952 14.528H57.41312a14.208 14.208 0 0 1-13.952-14.528V58.88C43.52512 50.816 49.66912 44.352 57.41312 44.352h909.184c7.68 0 13.952 6.464 13.952 14.528v906.24z" p-id="7780"></path><path d="M717.57312 141.568c36.416 36.608 64.128 67.712 83.136 94.72l-44.352 31.104a744.064 744.064 0 0 0-82.304-98.752l43.52-27.072z" p-id="7781"></path><path d="M818.88512 283.328l7.936 52.544-191.552 31.104c0.832 38.208 3.2 74.048 6.4 108.288l196.992-35.84 8.704 54.208-200.192 35.84c1.6 12.736 3.2 25.472 5.504 38.208 6.4 38.208 15.04 73.28 26.112 104.32a704.768 704.768 0 0 0 102.08-127.36l43.52 28.608c-38.72 58.176-79.872 108.352-124.16 150.528 3.136 7.168 6.272 14.336 10.24 20.736 23.68 39.04 45.888 58.88 65.664 58.88 18.24 0 34.048-40.576 47.488-121.792l48.256 32.64c-20.544 99.584-49.856 149.76-89.408 149.76-36.416-1.6-71.232-25.536-105.216-73.28a170.496 170.496 0 0 1-18.24-30.272c-63.296 50.944-132.16 88.384-204.928 110.72l-32.448-43.84a650.56 650.56 0 0 0 214.4-116.288c-14.208-34.24-25.28-73.28-34.752-116.288-3.968-19.136-7.168-37.44-10.304-54.976l-128.192 23.104-7.936-54.144 129.024-23.04a1203.2 1203.2 0 0 1-7.168-109.184l-107.584 17.536-8.704-53.376 114.752-18.304V142.336h58.56v170.432l185.152-29.44z" p-id="7782"></path><path d="M225.41312 386.88h184.32v52.544H334.59712v103.552h109.184v52.608H334.59712v176a635.2 635.2 0 0 0 119.488-68.48l9.472 51.776a687.36 687.36 0 0 1-186.752 94.72l-23.68-48.576c16.576-5.568 25.28-13.504 25.28-24.64V595.584H165.25312v-52.608H278.40512V439.424h-52.992v-52.544z" p-id="7783"></path><path d="M249.15712 142.336l55.36 11.968c-7.104 27.072-15.04 53.376-22.976 78.08h149.568v54.912H262.59712a920.64 920.64 0 0 1-73.6 148.16l-46.72-29.44a869.76 869.76 0 0 0 106.88-263.68z" p-id="7784"></path></svg>