<?xml version="1.0" standalone="no"?><!DOCTYPE svg PUBLIC "-//W3C//DTD SVG 1.1//EN" "http://www.w3.org/Graphics/SVG/1.1/DTD/svg11.dtd"><svg t="1509084570361" class="icon" style="" viewBox="0 0 1024 1024" version="1.1" xmlns="http://www.w3.org/2000/svg" p-id="7911" xmlns:xlink="http://www.w3.org/1999/xlink" width="200" height="200"><defs><style type="text/css"></style></defs><path d="M915.2 620.8c-57.6 0-108.8-44.8-108.8-108.8s44.8-108.8 108.8-108.8c57.6 0 108.8 44.8 108.8 108.8S979.2 620.8 915.2 620.8zM505.6 620.8c-57.6 0-108.8-44.8-108.8-108.8s44.8-108.8 108.8-108.8 108.8 44.8 108.8 108.8C614.4 569.6 569.6 620.8 505.6 620.8zM108.8 620.8C44.8 620.8 0 569.6 0 512s44.8-108.8 108.8-108.8 108.8 44.8 108.8 108.8S166.4 620.8 108.8 620.8z" p-id="7912"></path></svg>