<?xml version="1.0" standalone="no"?><!DOCTYPE svg PUBLIC "-//W3C//DTD SVG 1.1//EN" "http://www.w3.org/Graphics/SVG/1.1/DTD/svg11.dtd"><svg t="1509416857663" class="icon" style="" viewBox="0 0 1024 1024" version="1.1" xmlns="http://www.w3.org/2000/svg" p-id="112854" xmlns:xlink="http://www.w3.org/1999/xlink" width="200" height="200"><defs><style type="text/css"></style></defs><path d="M440.521774 73.491535 806.882364 73.491535C853.697833 73.491535 891.256747 109.162664 891.256747 152.650494L891.256747 646.477058C891.256747 655.284125 898.314328 662.423665 907.020295 662.423665 915.726262 662.423665 922.783843 655.284125 922.783843 646.477058L922.783843 152.650494C922.783843 91.082838 870.680509 41.59832 806.882364 41.59832L440.521774 41.59832C431.815807 41.59832 424.758226 48.737859 424.758226 57.544927 424.758226 66.351995 431.815807 73.491535 440.521774 73.491535L440.521774 73.491535Z" p-id="112855"></path><path d="M684.349952 849.581819 645.784435 849.581819 214.115468 849.581819C167.299998 849.581819 129.741084 813.910687 129.741084 770.422858L129.741084 152.643317C129.741084 109.155488 167.299998 73.484359 214.115468 73.484359L260.909557 73.484359C269.615523 73.484359 276.673103 66.344819 276.673103 57.537751 276.673103 48.730683 269.615523 41.591144 260.909557 41.591144L214.115468 41.591144C150.317325 41.591144 98.21399 91.075662 98.21399 152.643317L98.21399 770.422858C98.21399 831.990516 150.317325 881.475033 214.115468 881.475033L645.784435 881.475033 684.349952 881.475033C693.055919 881.475033 700.113496 874.335493 700.113496 865.528426 700.113496 856.721359 693.055919 849.581819 684.349952 849.581819L684.349952 849.581819Z" p-id="112856"></path><path d="M891.249657 204.001758 891.249657 821.781299C891.249657 865.269128 853.690742 900.94026 806.87527 900.94026L223.426995 900.94026C214.721029 900.94026 207.663448 908.0798 207.663448 916.886867 207.663448 925.693934 214.721029 932.833474 223.426995 932.833474L806.87527 932.833474C870.673415 932.833474 922.776749 883.348957 922.776749 821.781299L922.776749 204.001758C922.776749 195.19469 915.719168 188.055151 907.013201 188.055151 898.307234 188.055151 891.249657 195.19469 891.249657 204.001758L891.249657 204.001758Z" p-id="112857"></path><path d="M440.521774 73.491535 806.882364 73.491535C853.278674 73.491535 891.256747 114.141473 891.256747 164.730048L891.256747 861.062578C891.256747 911.651155 853.278674 952.301091 806.882364 952.301091L214.117833 952.301091C167.721524 952.301091 129.743448 911.651155 129.743448 861.062578L129.743448 164.730048C129.743448 114.141473 167.721524 73.491535 214.117833 73.491535L260.911921 73.491535C269.617888 73.491535 276.675468 66.351995 276.675468 57.544927 276.675468 48.737859 269.617888 41.59832 260.911921 41.59832L214.117833 41.59832C149.899271 41.59832 98.216355 96.917273 98.216355 164.730048L98.216355 861.062578C98.216355 928.875354 149.899271 984.194306 214.117833 984.194306L806.882364 984.194306C871.100928 984.194306 922.783843 928.875354 922.783843 861.062578L922.783843 164.730048C922.783843 96.917273 871.100928 41.59832 806.882364 41.59832L440.521774 41.59832C431.815807 41.59832 424.758226 48.737859 424.758226 57.544927 424.758226 66.351995 431.815807 73.491535 440.521774 73.491535L440.521774 73.491535Z" p-id="112858"></path><path d="M700.108768 865.523641 700.108768 753.674138C700.108768 703.085561 738.086845 662.435625 784.483151 662.435625L907.013201 662.435625C915.719168 662.435625 922.776749 655.296085 922.776749 646.489017 922.776749 637.681946 915.719168 630.54241 907.013201 630.54241L784.483151 630.54241C720.264591 630.54241 668.581676 685.861362 668.581676 753.674138L668.581676 865.523641C668.581676 874.330709 675.639254 881.470249 684.34522 881.470249 693.051187 881.470249 700.108768 874.330709 700.108768 865.523641L700.108768 865.523641Z" p-id="112859"></path><path d="M896.009311 635.063494 676.415223 851.53869C670.18013 857.685225 670.051141 867.781215 676.127115 874.088713 682.20309 880.396214 692.183185 880.5267 698.418275 874.380164L918.012363 657.904972C924.247457 651.758437 924.376445 641.662446 918.300471 635.354945 912.224496 629.047444 902.244401 628.916958 896.009311 635.063494L896.009311 635.063494Z" p-id="112860"></path><path d="M245.153103 43.85317 245.153103 527.72905C245.153103 536.536117 252.210684 543.675657 260.91665 543.675657 269.622617 543.675657 276.680197 536.536117 276.680197 527.72905L276.680197 43.85317C276.680197 35.046102 269.622617 27.906563 260.91665 27.906563 252.210684 27.906563 245.153103 35.046102 245.153103 43.85317L245.153103 43.85317Z" p-id="112861"></path><path d="M424.753498 44.331568 424.753498 531.508397C424.753498 540.315464 431.811079 547.455004 440.517046 547.455004 449.223009 547.455004 456.28059 540.315464 456.28059 531.508397L456.28059 44.331568C456.28059 35.5245 449.223009 28.384961 440.517046 28.384961 431.811079 28.384961 424.753498 35.5245 424.753498 44.331568L424.753498 44.331568Z" p-id="112862"></path><path d="M272.063161 538.997827 361.868087 448.150005C368.024135 441.922468 368.024135 431.825634 361.868087 425.598097 355.712039 419.37056 345.731113 419.37056 339.575065 425.598097L249.770139 516.445918C243.614091 522.673456 243.614091 532.77029 249.770139 538.997827 255.926187 545.225364 265.907113 545.225364 272.063161 538.997827L272.063161 538.997827Z" p-id="112863"></path><path d="M339.570336 448.15479 429.375262 539.002612C435.53131 545.230149 445.512238 545.230149 451.668286 539.002612 457.824334 532.775074 457.824334 522.67824 451.668286 516.450703L361.863358 425.602881C355.70731 419.375344 345.726385 419.375344 339.570336 425.602881 333.414288 431.830419 333.414288 441.927253 339.570336 448.15479L339.570336 448.15479Z" p-id="112864"></path><path d="M260.91665 59.799778 440.526502 59.799778C449.232469 59.799778 456.29005 52.660238 456.29005 43.85317 456.29005 35.046102 449.232469 27.906563 440.526502 27.906563L260.91665 27.906563C252.210684 27.906563 245.153103 35.046102 245.153103 43.85317 245.153103 52.660238 252.210684 59.799778 260.91665 59.799778L260.91665 59.799778Z" p-id="112865"></path></svg>