<?xml version="1.0" standalone="no"?><!DOCTYPE svg PUBLIC "-//W3C//DTD SVG 1.1//EN" "http://www.w3.org/Graphics/SVG/1.1/DTD/svg11.dtd"><svg t="1509243555424" class="icon" style="" viewBox="0 0 1024 1024" version="1.1" xmlns="http://www.w3.org/2000/svg" p-id="9057" xmlns:xlink="http://www.w3.org/1999/xlink" width="200" height="200"><defs><style type="text/css"></style></defs><path d="M799.04 692.928l-88 115.072c-8.576 11.2-25.984 25.728-38.464 32.192l-151.168 78.144c-38.08 19.712-59.008 2.496-46.72-38.592l48.96-162.688c4.032-13.632 14.016-33.792 22.336-45.568l285.056-398.208c8.256-11.52 14.976-32.704 14.976-46.528L846.016 88.256c0-45.248-33.856-81.92-75.776-81.92L76.8 6.336c-41.792 0-75.776 36.672-75.776 81.92l0 847.552c0 45.248 33.984 81.92 75.776 81.92l693.568 0c41.856 0 75.776-36.672 75.776-81.92l0-226.688C846.08 666.24 825.088 658.816 799.04 692.928zM143.872 236.288c0-14.08 11.648-25.536 25.856-25.536l507.648 0c14.336 0 25.856 11.648 25.856 25.536l0 32.64c0 14.144-11.712 25.6-25.856 25.6L169.728 294.528c-14.336 0-25.856-11.712-25.856-25.6L143.872 236.288zM143.872 428.928c0-14.144 11.52-25.6 25.728-25.6l415.104 0c14.272 0 25.792 11.648 25.792 25.6l0 32.64c0 14.08-11.52 25.536-25.792 25.536L169.6 487.104c-14.144 0-25.728-11.648-25.728-25.536L143.872 428.928zM143.872 648.896 143.872 616.32c0-14.144 11.648-25.6 25.536-25.6l312.32 0c14.144 0 25.6 11.648 25.6 25.6l0 32.512c0 14.144-11.712 25.6-25.6 25.6l-312.32 0C155.328 674.496 143.872 662.848 143.872 648.896z" p-id="9058"></path><path d="M1004.224 247.616l-17.856-15.616c-21.504-18.816-52.416-15.36-69.056 7.68l-334.08 463.616c-8.32 11.52-18.624 31.936-22.976 45.504l-17.472 54.72c-13.056 40.768 6.144 56.32 42.88 34.56l48.64-28.672c12.16-7.232 29.056-22.4 37.696-33.856l340.224-452.672C1029.312 300.096 1025.6 266.24 1004.224 247.616z" p-id="9059"></path></svg>