<?xml version="1.0" standalone="no"?><!DOCTYPE svg PUBLIC "-//W3C//DTD SVG 1.1//EN" "http://www.w3.org/Graphics/SVG/1.1/DTD/svg11.dtd"><svg t="1509357433770" class="icon" style="" viewBox="0 0 1024 1024" version="1.1" xmlns="http://www.w3.org/2000/svg" p-id="108585" xmlns:xlink="http://www.w3.org/1999/xlink" width="200" height="200"><defs><style type="text/css"></style></defs><path d="M1023.268571 679.131429c-1.462857-49.737143-14.043429-93.110857-37.302857-129.170286a216.137143 216.137143 0 0 0-77.019428-71.314286 264.484571 264.484571 0 0 0-66.633143-25.892571 432.566857 432.566857 0 0 0-34.230857-127.341715c-22.674286-50.176-54.637714-90.624-94.866286-120.32-50.102857-36.937143-112.201143-56.466286-184.466286-58.002285h-0.950857c-161.792 0-248.100571 76.361143-291.913143 140.434285-29.257143 42.642286-43.593143 85.577143-50.322285 112.713143a367.616 367.616 0 0 0-84.992 50.029715C26.624 509.220571-7.68 588.507429 1.462857 679.716571c5.12 50.907429 22.601143 94.939429 52.077714 130.925715 23.405714 28.525714 53.979429 51.492571 90.916572 68.242285a337.334857 337.334857 0 0 0 121.563428 28.818286h89.234286a45.202286 45.202286 0 1 0 0-90.331428H266.605714a247.442286 247.442286 0 0 1-84.845714-20.772572c-54.857143-24.868571-84.48-66.048-90.404571-125.878857a161.133714 161.133714 0 0 1 14.848-89.088c10.752-21.650286 27.062857-41.545143 48.713142-59.099429a273.188571 273.188571 0 0 1 82.724572-45.494857 44.690286 44.690286 0 0 0 32.109714-38.107428c0-0.512 6.582857-50.688 40.667429-100.425143 45.860571-66.925714 118.857143-100.937143 216.941714-101.083429 52.443429 1.170286 96.548571 14.482286 131.072 39.497143 27.574857 20.041143 49.883429 48.054857 66.267429 83.382857a345.965714 345.965714 0 0 1 29.769142 130.706286 44.397714 44.397714 0 0 0 42.934858 45.568c2.413714 0.219429 36.790857 2.925714 69.924571 22.308571 42.349714 24.722286 63.780571 64.731429 65.609143 122.148572-0.146286 54.710857-19.236571 92.306286-58.368 115.053714a162.962286 162.962286 0 0 1-65.609143 20.260572H636.562286a116.955429 116.955429 0 0 1-36.644572-10.971429c-22.454857-11.556571-25.453714-25.892571-25.453714-38.326857V573.732571l72.484571 71.241143a45.129143 45.129143 0 1 0 63.341715-64.438857l-149.577143-147.017143a45.202286 45.202286 0 0 0-63.634286 0.292572L344.868571 586.020571a45.202286 45.202286 0 1 0 63.853715 63.926858L484.205714 574.537143v192.512c0 53.101714 27.648 95.817143 77.824 120.32a206.262857 206.262857 0 0 0 72.265143 19.309714h177.371429a248.905143 248.905143 0 0 0 104.448-30.208 200.850286 200.850286 0 0 0 74.166857-69.632c21.942857-35.108571 33.060571-77.677714 33.060571-126.390857v-1.316571z" p-id="108586"></path></svg>