<?xml version="1.0" standalone="no"?><!DOCTYPE svg PUBLIC "-//W3C//DTD SVG 1.1//EN" "http://www.w3.org/Graphics/SVG/1.1/DTD/svg11.dtd"><svg t="1509516863337" class="icon" style="" viewBox="0 0 1024 1024" version="1.1" xmlns="http://www.w3.org/2000/svg" p-id="1865" xmlns:xlink="http://www.w3.org/1999/xlink" width="200" height="200"><defs><style type="text/css"></style></defs><path d="M209.92 203.264h604.16c11.776 0 20.992-9.728 20.992-20.992 0-11.264-9.216-20.48-20.48-20.992h-604.16c-11.776 0-20.992 9.216-20.992 20.48-0.512 11.776 8.704 21.504 20.48 21.504zM965.632 564.224l-130.56-226.304v-71.68c0-11.264-9.216-20.992-20.48-20.992h-604.16c-11.776 0-20.992 9.216-20.992 20.48v71.68l-130.56 226.304c-4.096 6.144-5.632 13.824-4.608 21.504v326.144c0 19.456 15.872 34.816 34.816 34.816h846.336c19.456 0 34.816-15.872 34.816-34.816V585.216c1.024-6.656-0.512-14.336-4.608-20.992z m-130.56-86.016l44.032 76.8h-44.032v-76.8zM231.424 288.256h561.152v266.752h-64c-17.408 0-32.256 12.8-34.816 30.208-6.656 43.008-29.184 82.432-62.464 110.592-33.28 28.672-75.264 44.032-119.296 44.032-44.032 0-86.016-15.36-119.808-44.032-32.768-27.648-54.272-66.048-61.952-108.032-1.024-17.92-15.872-32.256-34.304-32.768h-65.024V288.256z m-42.496 189.952v76.8h-44.032l44.032-76.8z m-64.512 398.336v-250.88h142.848c13.824 48.128 41.472 91.648 79.36 124.416 44.032 37.376 101.888 60.416 164.864 60.416 60.416 0 118.784-21.504 164.864-60.416 37.888-32.768 65.536-75.776 79.36-124.416h143.36v250.88h-774.656zM209.92 118.784h604.16c11.776 0 20.992-9.728 20.992-21.504 0-11.264-9.216-20.48-20.48-20.992H209.92c-11.264 0-20.992 9.216-20.992 20.48 0 12.288 9.216 21.504 20.992 22.016z" p-id="1866"></path><path d="M413.184 382.976v205.824c0 18.944-8.704 28.672-26.112 28.672h-21.504v-228.352c0-29.696 13.824-44.032 41.984-44.032h77.824v-14.336h50.176v14.336h119.808v38.4h-242.176z m108.544 167.424v-4.608c0-11.776-10.24-17.408-31.232-16.896h-34.816c-22.528 0-32.256-11.776-29.696-35.84l24.064-46.592h-25.088v-36.864h46.592l8.192-17.92h56.32l-9.728 17.92h126.976v36.864h-146.944l-22.528 44.032h38.4v-31.232h49.152v31.232h78.848v38.4h-78.848v21.504h82.432v36.864h-82.432v28.672h-49.152v-8.192c0-13.824-9.216-20.48-27.648-20.48h-70.656v-36.864h97.792z" p-id="1867"></path></svg>