<?xml version="1.0" standalone="no"?><!DOCTYPE svg PUBLIC "-//W3C//DTD SVG 1.1//EN" "http://www.w3.org/Graphics/SVG/1.1/DTD/svg11.dtd"><svg t="1509084588771" class="icon" style="" viewBox="0 0 1024 1024" version="1.1" xmlns="http://www.w3.org/2000/svg" p-id="8019" xmlns:xlink="http://www.w3.org/1999/xlink" width="200" height="200"><defs><style type="text/css"></style></defs><path d="M512 6.4C233.28 6.4 6.4 233.152 6.4 512s226.88 505.6 505.6 505.6c278.784 0 505.6-226.752 505.6-505.536C1017.6 233.152 790.848 6.4 512 6.4z m0 947.904A442.88 442.88 0 0 1 69.632 512c0-244.032 198.4-442.368 442.368-442.368S954.368 267.968 954.368 512c0.064 243.84-198.4 442.304-442.368 442.304z" p-id="8020"></path><path d="M708.16 636.224H540.224V554.688h167.936c18.176 0 34.24-10.56 34.24-26.048 0-15.488-16.064-26.88-34.24-26.88h-140.16l146.56-217.664v0.896c8.576-12.288 3.2-28.544-14.976-34.24-16.064-8.192-37.44-2.432-46.016 9.792l-146.496 217.6-147.648-216.896c-8.576-11.328-28.864-16.256-44.928-10.56-19.264 7.36-25.664 22.784-16.064 35.008l146.56 216.064H302.72c-18.176 0-33.152 11.392-33.152 25.28 0 17.088 14.976 27.712 33.152 27.712h167.936v81.536H302.72c-18.176 0-33.152 11.392-33.152 26.048 0 15.488 14.976 27.712 33.152 27.712h167.936v94.528c0 13.824 14.976 26.112 34.24 26.112 21.376 0 35.264-12.224 35.264-26.112v-94.528h167.936c18.176 0 34.24-12.16 34.24-26.048 0-16.384-16-27.776-34.176-27.776z" p-id="8021"></path></svg>