<?xml version="1.0" standalone="no"?><!DOCTYPE svg PUBLIC "-//W3C//DTD SVG 1.1//EN" "http://www.w3.org/Graphics/SVG/1.1/DTD/svg11.dtd"><svg t="1509416416421" class="icon" style="" viewBox="0 0 1024 1024" version="1.1" xmlns="http://www.w3.org/2000/svg" p-id="110001" xmlns:xlink="http://www.w3.org/1999/xlink" width="200" height="200"><defs><style type="text/css"></style></defs><path d="M944.5 251.5c-10.5-10.5-24.8-16.3-39.6-16.3H792.6V118.9c-0.1-20.6-16.8-37.2-37.4-37.2H268.8c-9.9 0-19.4 3.9-26.4 10.9s-11 16.5-11 26.4v116.3H119.1c-14.8 0-29.1 5.8-39.6 16.3C69 262 63 276.2 63 291v18.6c0.3 103.7 72 193.6 173 216.9 22.5 123 123.9 216.1 248.3 228.2v131.7H315.6c-15.4 0-27.9 12.5-27.9 27.9s12.5 27.9 27.9 27.9h392.9c15.4 0 27.9-12.5 27.9-27.9s-12.5-27.9-27.9-27.9h-168V754.7c124.1-12.4 225-105.4 247.5-228.1 101-23.4 172.7-113.2 173-217V291c0-14.8-6-29-16.5-39.5zM231.4 466.8c-67-23.2-112-86.3-112.3-157.2 0.1-10.3 8.4-18.6 18.7-18.6h93.5v175.8z m505.1 10.3c0 124-100.5 224.5-224.5 224.5S287.5 601.1 287.5 477.1v-321c0.1-10.3 8.4-18.6 18.7-18.6h411.6c10.3 0 18.6 8.3 18.7 18.6v321z m56.1-10.2V291h93.5c5 0 9.7 2 13.2 5.5s5.5 8.3 5.5 13.2c-0.2 70.9-45.2 133.9-112.2 157.2z" fill="" p-id="110002"></path><path d="M590.2 498.9h-49.4V231.5c0-6.7-5.4-12.1-12.1-12.1h-22.5c-2.2 0-4.3 0.6-6.1 1.7-15.9 9.3-34.3 15.9-58.6 21.1-4.8 1-8.3 5.2-8.3 10.2v13c0 5.7 4.6 10.4 10.4 10.4h47.2v223.3H434c-11.4 0-20.7 9.3-20.7 20.7 0 11.4 9.3 20.7 20.7 20.7h156.4c11.4 0 20.7-9.3 20.7-20.7-0.2-11.6-9.5-20.9-20.9-20.9z" fill="" p-id="110003"></path></svg>