<svg width="1024" height="1024" xmlns="http://www.w3.org/2000/svg" class="icon">
 <defs>
  <style type="text/css"/>
 </defs>
 <g>
  <title>background</title>
  <rect fill="none" id="canvas_background" height="402" width="582" y="-1" x="-1"/>
 </g>
 <g>
  <title>Layer 1</title>
  <path id="svg_1" d="m864.256,557.568c25.6,-51.712 40.448,-109.056 40.448,-170.496c0,-214.016 -176.128,-387.072 -393.216,-387.072c-217.088,0 -393.216,173.568 -393.216,387.08224c0,61.44 14.848,118.784 40.448,170.496l-158.72,271.86176c0,0 101.376,20.48 203.776,41.48224c68.608,76.27776 136.704,152.05376 136.704,152.05376l146.432,-250.368c8.192,0.512 16.384,1.03424 25.088,1.03424s16.896,-0.52224 25.088,-1.03424l146.432,250.368c0,0 68.096,-75.776 136.704,-152.064c102.4,-20.992 203.776,-41.472 203.776,-41.472l-159.744,-271.872l0,0zm-535.04,-347.136l104.96,0l0,-35.328l30.208,0l0,35.328l110.08,0l0,-35.84l30.21824,0l0,35.84l102.90176,0l0,27.63776l-103.424,0l0,29.19424l-30.208,0l0,-29.184l-110.08,0l0,24.576l-30.208,0l0,-24.576l-104.448,0l0,-27.648l0,0zm3.584,696.84224c0,0 -49.152,-46.592 -95.232,-91.648c-65.536,-18.432 -131.584,-37.38624 -131.584,-37.38624l92.672,-158.19776c53.248,69.632 130.048,120.832 219.136,142.32576l-84.992,144.90624l0,0zm91.136,-345.6l-29.696,0l0,-156.672c-18.432,22.00576 -37.376,41.472 -57.344,58.35776c-7.168,-10.752 -13.312,-19.44576 -18.432,-26.624c39.936,-32.768 74.752,-73.216 103.936,-122.368l-92.672,0l0,-27.648l108.544,0c3.072,-6.144 6.144,-11.76576 9.216,-18.432l31.232,0c-3.072,6.15424 -6.144,12.288 -9.216,18.432l231.936,0l0,27.648l-246.272,0c-9.728,17.92 -20.48,34.31424 -30.72,50.176l0,197.12l-0.512,0l0,0.01024zm179.2,-47.62624c0,31.232 -14.336,46.592 -43.01824,46.592c-16.88576,0 -39.41376,0 -69.10976,-0.512c-1.536,-10.24 -3.072,-20.992 -5.12,-32.24576c24.576,2.03776 46.592,3.072 66.56,3.072c13.824,0 20.46976,-7.168 20.46976,-22.02624l0,-48.128l-119.28576,0l0,-27.648l119.28576,0l0,-18.944l57.86624,-37.376l-155.648,0l0,-27.136l205.312,0l0,27.136l-76.8,48.64l0,7.68l104.448,0l0,27.648l-104.448,0l0,53.248l-0.512,0l0,0zm183.30624,301.568c-46.08,45.056 -95.24224,91.648 -95.24224,91.648l-85.00224,-144.896c88.576,-21.504 165.376,-72.704 219.136,-142.32576l92.68224,158.19776c0,0 -66.048,18.95424 -131.57376,37.376l0,0z"/>
  <rect id="svg_2" height="448" width="450" y="142" x="285" fill-opacity="null" stroke-opacity="null" stroke-width="null" stroke="null" fill="null"/>
 </g>
</svg>