<svg width="1024" height="1024" xmlns="http://www.w3.org/2000/svg" class="icon">
 <defs>
  <style type="text/css"/>
 </defs>
 <g stroke="null">
  <title>background</title>
  <rect x="-1" y="-1" width="1026" height="1026" id="canvas_background" fill="none" stroke="null"/>
 </g>
 <g stroke="null">
  <title>Layer 1</title>
  <defs>
   <style type="text/css"/>
  </defs>
  <g stroke="null" id="svg_7">
   <path stroke="null" d="m460.269367,598.477189c-18.826773,0 -37.653547,18.609036 -37.653547,40.939878l0,256.804702c0,22.330842 15.688976,40.939878 37.653547,40.939878c18.826773,0 37.653547,-18.609036 37.653547,-40.939878l0,-253.082897c-3.137797,-26.052647 -18.826773,-44.661683 -37.653547,-44.661683z" id="svg_5"/>
   <path stroke="null" d="m846.218252,576.146339c-15.688986,0 -62.755923,7.44362 -87.858282,11.165425c0,-14.887231 3.137788,-29.774462 12.551179,-59.548914c6.275594,-29.774462 18.826773,-63.270729 15.688976,-96.766996c-9.413382,-63.27072 -69.031508,-78.157951 -87.858282,-18.609036c0,3.721814 -25.102368,74.436145 -25.102368,74.436145c-18.826773,33.496267 -21.96457,44.661692 -69.031508,81.879765c-40.791344,37.218073 -50.204726,44.661683 -56.48032,52.105303c-6.275594,7.443611 -12.551179,14.887231 -12.551179,22.330842l0,249.361091c0,7.443611 3.137788,14.887222 9.413382,22.330842c31.377962,26.052647 144.338611,48.383489 200.818931,48.383489c28.240165,0 47.066938,0 69.031508,-14.887222c12.551179,-7.44362 12.551179,-18.609036 18.826773,-26.052656c28.240165,-29.774453 18.826773,-70.71434 28.240165,-81.879756c31.377962,-37.218073 25.102368,-85.60157 31.377962,-96.766996c12.551179,-37.218073 9.413382,-33.496258 12.551179,-59.548914c18.826773,-78.157951 -12.551179,-104.210607 -59.618117,-107.932412z" id="svg_6"/>
  </g>
  <path fill="null" stroke-width="null" stroke-opacity="null" fill-opacity="null" opacity="0.5" d="m-3,228" id="svg_8" stroke="null"/>
  <defs>
   <style type="text/css"/>
  </defs>
  <g id="svg_22" stroke="null">
   <path d="m988.05814,1035.16711l0,0z" id="svg_14" stroke="null"/>
   <path d="m399.75687,814.75634l0,0z" id="svg_15" stroke="null"/>
   <path d="m163.76008,216.63897l430.71488,0l0,70.78312l-430.71488,0l0,-70.78312l0,0z" id="svg_17" stroke="null"/>
   <path d="m163.76008,398.05349l344.52086,0l0,70.78312l-344.52086,0l0,-70.78312z" id="svg_18" stroke="null"/>
   <path d="m163.76008,605.94613l172.26043,0l0,70.78312l-172.26043,0l0,-70.78312l0,0z" id="svg_19" stroke="null"/>
   <path d="m374.81101,933.3836l-301.45576,0l0,-862.76758l693.38014,0l0,247.74092c17.22604,0 56.01654,4.39117 73.24258,4.39117l0,-287.52365c0,-17.69578 -17.22604,-35.39156 -34.45209,-35.39156l-770.96112,0c-17.22605,0 -34.45209,17.69578 -34.45209,35.39156l0,937.94188c0,17.69578 17.22604,35.39156 34.45209,35.39156l383.31135,0c-17.22604,-22.08696 -30.17747,-57.47852 -43.0651,-75.1743l0,0l0,0z" id="svg_20" stroke="null"/>
  </g>
 </g>
</svg>