<?xml version="1.0" standalone="no"?><!DOCTYPE svg PUBLIC "-//W3C//DTD SVG 1.1//EN" "http://www.w3.org/Graphics/SVG/1.1/DTD/svg11.dtd"><svg t="1509330672268" class="icon" style="" viewBox="0 0 1024 1024" version="1.1" xmlns="http://www.w3.org/2000/svg" p-id="7174" xmlns:xlink="http://www.w3.org/1999/xlink" width="200" height="200"><defs><style type="text/css"></style></defs><path d="M961.88416 141.390848c-15.998976-15.996928-41.934848-15.996928-57.930752 0L498.44224 546.884608c-15.997952 15.99488-15.997952 41.930752 0 57.92768 15.996928 15.99488 41.9328 15.99488 57.928704 0L961.88416 199.320576c15.99488-15.996928 15.99488-41.9328 0-57.92768zM811.660288 576.3584c-22.41536 0-40.589312 18.17088-40.589312 40.588288v202.937344c0 22.416384-18.171904 40.587264-40.589312 40.587264H202.819584c-22.417408 0-40.589312-18.17088-40.589312-40.587264v-649.40032c0-22.41536 18.171904-40.588288 40.589312-40.588288h405.89312c22.417408 0 40.589312-18.17088 40.589312-40.587264 0-22.41536-18.171904-40.587264-40.589312-40.587264H162.230272c-44.832768 0-81.1776 36.343808-81.1776 81.174528v730.576896c0 44.83072 36.344832 81.1776 81.1776 81.1776H771.072c44.834816 0 81.178624-36.345856 81.178624-81.1776V616.946688c0-22.417408-18.171904-40.588288-40.589312-40.588288z" p-id="7175"></path></svg>