<?xml version="1.0" standalone="no"?><!DOCTYPE svg PUBLIC "-//W3C//DTD SVG 1.1//EN" "http://www.w3.org/Graphics/SVG/1.1/DTD/svg11.dtd"><svg t="1509344619706" class="icon" style="" viewBox="0 0 1057 1024" version="1.1" xmlns="http://www.w3.org/2000/svg" p-id="92896" xmlns:xlink="http://www.w3.org/1999/xlink" width="206.4453125" height="200"><defs><style type="text/css"></style></defs><path d="M527.405 91.879l132.907 275.612 302.264 44.958-218.891 218.376 7.348 43.83 43.797 261.173-267.426-143.832-267.426 143.865 51.145-305.068-218.827-218.376 302.232-44.926 19.853-41.123 113.023-234.489M527.405 32c-27.683 0-52.983 15.63-64.778 40.091l-112.056 232.62-257.854 38.351c-26.491 3.964-48.471 22.043-57.011 46.794-8.508 24.816-2.063 52.112 16.629 70.74l188.919 188.725-43.83 261.689c-4.416 26.363 6.994 52.822 29.36 68.258 12.311 8.444 26.749 12.73 41.187 12.73 11.924 0 23.816-2.901 34.613-8.669l224.788-121.047 224.821 121.047c10.828 5.768 22.753 8.669 34.612 8.669 14.47 0 28.909-4.286 41.252-12.73 22.334-15.437 33.743-41.864 29.295-68.258l-43.83-261.689 189.016-188.725c18.692-18.627 25.105-45.924 16.597-70.74-8.541-24.783-30.519-42.863-57.011-46.794l-257.822-38.351-112.12-232.652c-11.763-24.428-37.029-40.059-64.778-40.059v0z" p-id="92897"></path></svg>