<?xml version="1.0" standalone="no"?><!DOCTYPE svg PUBLIC "-//W3C//DTD SVG 1.1//EN" "http://www.w3.org/Graphics/SVG/1.1/DTD/svg11.dtd"><svg t="1509346492872" class="icon" style="" viewBox="0 0 1024 1024" version="1.1" xmlns="http://www.w3.org/2000/svg" p-id="2875" xmlns:xlink="http://www.w3.org/1999/xlink" width="200" height="200"><defs><style type="text/css"></style></defs><path d="M512 512m-512 0a512 512 0 1 0 1024 0 512 512 0 1 0-1024 0Z" fill="#2DAFFF" p-id="2876"></path><path d="M810.666667 511.317333h-170.666667l-128 85.333334h298.666667c17.706667 0 42.666667 25.002667 42.666666 42.666666 0 0 3.541333 124.458667 0 128l-152.362666 120.064a31.829333 31.829333 0 0 1-23.509334 9.258667l-0.768 0.128-164.693333-1.450667c-17.706667 0-42.666667-24.96-42.666667-42.666666 0-17.664 24.96-42.666667 42.666667-42.666667h170.666667l85.333333-42.666667v-85.333333h-256c-0.341333 0.426667 0.384-0.384 0 0l-170.666667 170.666667c0 5.162667-170.666667-169.002667-170.666666-170.666667-0.042667-0.512 0 0.554667 0 0v-341.333333c0-17.664 24.96-42.666667 42.666666-42.666667 17.706667 0 42.666667 25.002667 42.666667 42.666667v341.333333l85.333333 85.333333 85.333334-85.333333v-341.333333c0-17.664 24.96-42.666667 42.666666-42.666667 17.706667 0 42.666667 25.002667 42.666667 42.666667v170.666666l128-85.333333c6.485333-6.442667 34.176-0.213333 42.666667 0 0.298667 0-16.128-7.04-15.829334-7.04L810.666667 425.984c17.706667 0 42.666667 25.002667 42.666666 42.666667 0 17.706667-24.96 42.666667-42.666666 42.666666z" fill="#FFFFFF" p-id="2877"></path></svg>