<?xml version="1.0" standalone="no"?><!DOCTYPE svg PUBLIC "-//W3C//DTD SVG 1.1//EN" "http://www.w3.org/Graphics/SVG/1.1/DTD/svg11.dtd"><svg t="1509344610477" class="icon" style="" viewBox="0 0 1024 1024" version="1.1" xmlns="http://www.w3.org/2000/svg" p-id="92788" xmlns:xlink="http://www.w3.org/1999/xlink" width="200" height="200"><defs><style type="text/css"></style></defs><path d="M531.456 47.104l123.904 296.96c3.072 7.168 10.24 12.288 18.432 13.312l320.512 25.6c18.432 1.024 26.624 25.6 12.288 37.888L761.856 629.76c-6.144 5.12-8.192 13.312-7.168 21.504L829.44 963.584c4.096 18.432-15.36 32.768-31.744 23.552L523.264 819.2c-7.168-4.096-15.36-4.096-22.528 0L226.304 987.136c-16.384 10.24-35.84-5.12-31.744-23.552l74.752-313.344c2.048-8.192-1.024-16.384-7.168-21.504L17.408 419.84c-14.336-12.288-7.168-35.84 12.288-37.888l320.512-25.6c8.192-1.024 15.36-6.144 18.432-13.312l123.904-296.96C499.712 29.696 524.288 29.696 531.456 47.104" p-id="92789"></path></svg>