<?xml version="1.0" standalone="no"?><!DOCTYPE svg PUBLIC "-//W3C//DTD SVG 1.1//EN" "http://www.w3.org/Graphics/SVG/1.1/DTD/svg11.dtd"><svg t="1510731959730" class="icon" style="" viewBox="0 0 1024 1024" version="1.1" xmlns="http://www.w3.org/2000/svg" p-id="17604" xmlns:xlink="http://www.w3.org/1999/xlink" width="200" height="200"><defs><style type="text/css"></style></defs><path d="M665.472 995.456C665.472 995.456 665.472 995.456 665.472 995.456c-18.624 0-36.736-7.68-48.448-20.608-15.936-17.472-66.432-62.912-107.712-62.912-41.024 0-92.288 45.696-107.008 61.696-11.648 12.672-29.632 20.224-48.064 20.224-8.768 0-17.088-1.664-24.64-4.992l-1.344-0.576-125.568-70.208-1.216-0.896c-22.848-16-31.552-47.296-20.224-72.832 0.064-0.192 11.584-26.752 11.584-50.944 0-73.408-59.712-133.12-133.12-133.12l-4.48 0c-0.256 0-0.512 0-0.832 0-21.056 0-38.144-18.688-43.648-47.616C10.304 610.432 0 555.584 0 512.384s10.304-98.048 10.688-100.352c5.568-29.248 23.04-48.064 44.416-47.552l4.48 0c73.408 0 133.12-59.712 133.12-133.12 0-24.192-11.52-50.688-11.584-50.944C169.792 154.88 178.56 123.584 201.536 107.584l1.28-0.896L335.36 33.92l1.408-0.576c7.488-3.2 15.616-4.8 24.32-4.8 18.432 0 36.416 7.424 48.192 19.84 15.68 16.448 65.28 59.136 105.408 59.136 39.744 0 89.024-41.856 104.704-57.984 11.712-12.16 29.568-19.456 47.808-19.456 8.832 0 17.152 1.664 24.768 4.992l1.344 0.576 128 71.104 1.28 0.896c22.912 16 31.616 47.296 20.288 72.832-0.064 0.192-11.584 26.752-11.584 50.944 0 73.408 59.712 133.12 133.12 133.12l4.48 0c21.376-0.448 38.912 18.304 44.416 47.552C1013.696 414.336 1024 469.184 1024 512.384c0 43.2-10.304 98.048-10.688 100.352-5.568 29.312-23.04 48-44.416 47.552l-4.48 0c-73.408 0-133.12 59.712-133.12 133.12 0 24.192 11.52 50.688 11.584 50.944 11.328 25.472 2.56 56.768-20.352 72.768l-1.28 0.896-130.176 71.936-1.344 0.576C682.24 993.856 674.112 995.456 665.472 995.456L665.472 995.456zM661.504 934.144c0.576 0.384 2.24 1.024 3.968 1.024 0.064 0 0.128 0 0.192 0l121.664-67.2c-2.944-6.848-16.384-39.936-16.384-74.432 0-103.232 81.344-187.904 183.296-193.152 1.472-8.128 9.408-53.696 9.408-87.872 0-34.176-7.936-79.744-9.408-87.872-101.952-5.312-183.296-89.92-183.296-193.216 0-34.56 13.44-67.712 16.384-74.496l-119.68-66.496c-0.128 0-0.32 0-0.512 0-2.048 0-3.968 0.768-4.608 1.152-1.984 2.048-19.328 19.648-44.288 37.184C581.44 154.624 546.56 167.808 514.688 167.808c-32.192 0-67.392-13.44-104.512-39.872C385.152 110.08 367.68 92.16 365.696 90.048 365.056 89.6 363.136 88.832 361.088 88.832c-0.192 0-0.32 0-0.448 0L236.672 156.928C239.68 163.84 253.056 196.864 253.056 231.36c0 103.232-81.344 187.904-183.296 193.216C68.288 432.64 60.288 478.208 60.288 512.384c0 34.176 7.936 79.744 9.408 87.872 101.952 5.312 183.296 89.92 183.296 193.216 0 34.624-13.504 67.84-16.384 74.56l117.312 65.6c0.064 0 0.192 0 0.256 0 1.728 0 3.328-0.64 3.904-1.024 2.176-2.368 19.712-20.928 44.928-39.424 37.632-27.584 73.344-41.536 106.24-41.536 33.216 0 69.184 14.272 107.072 42.368C641.728 912.832 659.328 931.776 661.504 934.144L661.504 934.144z" p-id="17605"></path><path d="M509.76 689.024c-97.792 0-177.28-79.552-177.28-177.28s79.552-177.28 177.28-177.28 177.28 79.552 177.28 177.28S607.552 689.024 509.76 689.024L509.76 689.024zM509.76 394.752c-64.512 0-116.992 52.48-116.992 116.992 0 64.512 52.48 116.992 116.992 116.992 64.512 0 116.992-52.48 116.992-116.992C626.752 447.232 574.272 394.752 509.76 394.752L509.76 394.752z" p-id="17606"></path></svg>