<?xml version="1.0" standalone="no"?><!DOCTYPE svg PUBLIC "-//W3C//DTD SVG 1.1//EN" "http://www.w3.org/Graphics/SVG/1.1/DTD/svg11.dtd"><svg t="1509346618462" class="icon" style="" viewBox="0 0 1024 1024" version="1.1" xmlns="http://www.w3.org/2000/svg" p-id="3996" xmlns:xlink="http://www.w3.org/1999/xlink" width="200" height="200"><defs><style type="text/css"></style></defs><path d="M833.017 783.394c-61.977 34.139-181.349 57.738-320.197 57.738s-258.219-23.599-320.082-57.738c-79.161-31.962-138.16-75.152-168.175-125.1C10.587 681.55 0.734 705.837 0.734 731.384c0.115 141.368 229.35 256.043 512.085 256.043s511.971-114.675 511.971-256.043c0-25.662-9.738-49.834-23.714-73.09-29.899 49.948-89.012 93.137-168.059 125.1z m0-219.384c-61.977 34.139-181.349 57.738-320.197 57.738s-258.219-23.485-320.082-57.738c-79.161-32.077-138.16-75.152-168.175-125.215C10.587 462.165 0.734 486.338 0.734 511.885c0 141.368 229.235 256.043 511.971 256.043s511.971-114.675 511.971-256.043c0-25.547-9.738-49.834-23.714-73.09-29.785 50.064-88.898 93.138-167.945 125.215zM150.81 473.508c92.679 46.282 220.643 75.037 362.011 75.037s269.446-28.64 362.011-74.923c46.397-23.141 83.858-50.636 109.749-81.338 26.005-30.702 40.325-64.268 40.325-99.668 0-13.976-3.322-27.38-8.134-40.669-39.294-122.006-248.94-215.373-503.951-215.373-254.897 0-464.657 93.367-503.837 215.259C4.058 265.122 0.736 278.64 0.736 292.617c0 35.285 14.32 68.965 40.211 99.668 26.005 30.587 63.466 58.081 109.863 81.223z" p-id="3997"></path></svg>