<?xml version="1.0" standalone="no"?><!DOCTYPE svg PUBLIC "-//W3C//DTD SVG 1.1//EN" "http://www.w3.org/Graphics/SVG/1.1/DTD/svg11.dtd"><svg t="1508919953896" class="icon" style="" viewBox="0 0 1024 1024" version="1.1" xmlns="http://www.w3.org/2000/svg" p-id="1790" xmlns:xlink="http://www.w3.org/1999/xlink" width="200" height="200"><defs><style type="text/css"></style></defs><path d="M551.872 579.648v276.992c0 21.056-17.472 38.08-39.36 38.08a39.04 39.04 0 0 1-39.36-38.08V579.712L399.36 651.648a39.872 39.872 0 0 1-55.68 0.064 37.568 37.568 0 0 1 0-54.208L482.688 462.08a39.36 39.36 0 0 1 17.472-9.92 40.32 40.32 0 0 1 41.472 9.024l138.88 135.232c15.744 15.36 15.488 39.36 0.128 54.272a39.872 39.872 0 0 1-55.744 0l-72.96-71.104z" p-id="1791"></path><path d="M512.512 128.512a382.976 382.976 0 0 0-370.048 284.8 253.888 253.888 0 0 0 164.608 476.032 39.04 39.04 0 0 0 29.888-25.6 37.568 37.568 0 0 0-8.32-37.888 40 40 0 0 0-38.08-11.392 174.336 174.336 0 0 1-35.584 3.648c-96.64 0-175.296-79.104-175.296-177.216 0-73.728 44.992-138.816 111.552-165.12l19.584-7.68 4.224-20.16C244.48 307.2 368.32 205.12 512.512 205.12c144.128 0 267.968 102.08 297.472 242.816l4.224 20.16 19.584 7.68a177.216 177.216 0 0 1 111.488 165.12c0 98.112-78.72 177.216-175.232 177.216a174.08 174.08 0 0 1-33.536-3.2 40 40 0 0 0-38.144 11.712 37.568 37.568 0 0 0-7.872 38.208 39.04 39.04 0 0 0 30.528 25.152 253.888 253.888 0 0 0 161.536-476.672 382.912 382.912 0 0 0-370.048-284.8z" p-id="1792"></path></svg>