<?xml version="1.0" standalone="no"?><!DOCTYPE svg PUBLIC "-//W3C//DTD SVG 1.1//EN" "http://www.w3.org/Graphics/SVG/1.1/DTD/svg11.dtd"><svg t="1509357391071" class="icon" style="" viewBox="0 0 1025 1024" version="1.1" xmlns="http://www.w3.org/2000/svg" p-id="107927" xmlns:xlink="http://www.w3.org/1999/xlink" width="200.1953125" height="200"><defs><style type="text/css"></style></defs><path d="M513.505951 60.606812c-248.464601 0-449.887237 201.421131-449.887237 449.887237s201.421131 449.887237 449.887237 449.887237c248.466106 0 449.888742-201.421131 449.888742-449.887237S761.972057 60.606812 513.505951 60.606812zM214.386909 502.816032c-7.748761-9.755191-12.199633-17.211943-13.342078-22.374774l-5.167346-30.134071c-2.879444-14.334004-4.301857-24.820721-4.301857-31.4165 0-6.597284 2.287902-11.328123 6.887788-14.206062 8.030233-4.59236 14.767501-16.92144 20.229866-37.020354 5.442797-20.079346 8.176238-35.286365 8.176238-45.622563 0-10.324156-4.020385-18.072917-12.049113-23.237252-8.045285-5.171862-12.053629-9.18171-12.053629-12.059649 0-2.855361 3.296384-4.298847 9.898185-4.298847 6.589758 0 15.63299 2.295428 27.116149 6.886283 11.472622 4.601391 18.644892 10.194709 21.524337 16.779951 2.867403 6.607821 6.311297 9.907216 10.328671 9.907216 4.011354 0 7.748761-1.422412 11.19416-4.300352 21.802798-19.507371 67.425361-36.439347 136.866183-50.795929-9.762717-21.220287-22.093302-41.170186-37.009818-59.82712-14.927052-18.643387-27.266669-29.983552-37.023364-34.002431-2.877939-1.14094-4.297341-2.867403-4.297341-5.16283 0-2.283386 2.865898-3.448409 8.61124-3.448409 5.721259 0 22.374774 1.724957 49.922914 5.173367 27.546635 3.437873 49.779921 8.170217 66.711897 14.206062 16.92144 6.022299 28.841106 13.914054 35.727389 23.666234 6.886283 9.762717 11.480148 22.674308 13.775576 38.73327 39.022268-5.722764 63.400461-9.461677 73.164683-11.186634 9.753685-1.724957 15.778995-3.729882 18.087969-6.023804 5.161325-4.59236 12.177055-6.886283 21.078798-6.886283 8.894217 0 15.929514 1.432949 21.09385 4.298847 5.164336 2.877939 14.057048 9.473719 26.687167 19.797874 12.618078 10.336197 23.526251 21.954823 32.706455 34.866415 9.186226 12.911592 15.067036 22.383805 17.654472 28.410619 2.575394 6.023804 3.866855 12.198128 3.866855 18.504909 0 6.326349-2.144908 11.769146-6.458806 16.360001-4.295836 4.590855-8.900238 6.314307-13.77106 5.16283-4.879853-1.143951-11.335649-1.724957-19.364377-1.724957-8.042275 0-18.658439 2.585931-31.849998 7.748761-30.424575 11.487674-53.669353 17.211943-69.731325 17.211943-8.042275 0-15.915968-3.005881-23.669244-9.03119-7.745751-6.023804-11.629163-11.046651-11.629163-15.065531 0-4.009848 0.860973-6.305276 2.587436-6.887788 21.799788-8.612745 40.169229-19.797874 55.096281-33.571945 14.915011-13.77407 22.386815-23.527756 22.386815-29.273098 0-3.439378-2.891486-5.16283-8.61425-5.16283-14.355077 0-54.232297 10.626701-119.652734 31.848492-10.917204 18.376967-23.247789 27.546635-37.021859 27.546635-8.609735 0-15.497522-4.300352-20.660353-12.911592-28.699617 12.63012-48.778964 18.936901-60.259112 18.936901-11.489179 0-21.66432-0.711959-30.555527-2.144908-8.900238-1.434454-17.082496-2.156949-24.540754-2.156949-16.65201 0-28.981089 4.882864-37.011323 14.638054-18.375462 45.922097-30.856567 78.482548-37.44783 97.699416-6.60481 19.23794-10.048704 33.291978-10.328671 42.183184-0.295019 8.901743-0.430487 16.790488-0.430487 23.67677 0 9.765727-3.443894 14.627518-10.330176 14.627518-2.301448 0-4.736859-0.711959-7.31978-2.146413C227.298501 518.172066 222.135671 512.580254 214.386909 502.816032zM820.846386 799.371721c-9.765727 6.023804-32.861491 14.055542-69.296323 24.113278-36.455905 10.033652-79.068071 15.054994-127.839508 15.054994-69.440822 0-118.230322-7.747256-146.338396-23.237252-28.129147-15.496017-42.181679-41.042244-42.181679-76.617608 0-13.775576 2.585931-28.534046 7.747256-44.326587 5.164336-15.775984 14.335509-39.166767 27.546635-70.160307 2.867403-6.305276 4.301857-12.33209 4.301857-18.077432 0-11.477138-4.301857-16.641473-12.913097-15.497522-32.707961 45.920592-69.871308 92.407139-111.473486 139.450608-41.623251 47.055512-69.16537 75.604609-82.644422 85.660839-13.488083 10.033652-22.531314 15.058005-27.117654 15.058005-4.602897 0-6.886283-2.147918-6.886283-6.458806 0-4.300352 1.428433-13.634087 4.304867-27.966586 2.859877-14.355077 7.450732-26.56073 13.77106-36.594383 6.306781-10.045694 10.467149-15.067036 12.481105-15.067036 2.004924 0 3.443894 1.854404 4.304867 5.594822 0.856458 3.729882 1.574437 5.605359 2.150928 5.605359 2.865898 0 14.770512-16.791993 35.722873-50.365443 20.938815-33.574955 31.427037-52.650334 31.427037-57.238179 0-5.734806-2.457989-7.887239-7.318274-6.458806-4.881358 1.434454-11.629163 2.146413-20.228361 2.146413-8.61124 0-19.517907-4.151337-32.713981-12.4796-13.208116-8.3102-19.797874-21.220287-19.797874-38.73327 0-17.500941 1.292965-28.692091 3.874381-33.571945 2.581415-4.872327 7.452237-7.599747 14.632033-8.182258 7.175281-0.558429 14.770512-2.721399 22.811281-6.455796 8.028728-3.729882 21.522832-13.343584 40.459732-28.839601 18.936901-15.489996 31.124492-26.104655 36.591372-31.849998 5.441292-5.733301 8.180753-9.603166 8.180753-11.618626 0-2.004924-2.307469-3.577857-6.887788-4.741375-14.937589-5.722764-27.266669-14.334004-37.021859-25.823183-9.764222-11.466601-14.636549-19.216868-14.636549-23.237252 0-4.008343 3.148875-6.595779 9.476729-7.747256 25.821678-4.59236 53.497761-12.330585 83.070393-23.249294 29.541023-10.894626 47.76446-19.797874 54.653753-26.685662 4.595371-4.580319 9.75218-6.887788 15.499028-6.887788 5.734806 0 20.661858 4.170905 44.773631 12.490136 24.096721 8.320737 36.147339 19.368893 36.147339 33.142963s-7.4703 22.95578-22.38531 27.537604c-31.568525 9.192246-63.845999 27.114643-96.835432 53.803316-33.012011 26.696198-49.501459 42.335209-49.501459 46.924559 0 1.714421 1.724957 2.578405 5.161325 2.578405 3.449915 0 9.755191-2.578405 18.948942-7.750266 9.171174-5.164336 30.984509-20.359313 65.418932-45.621057 6.887788-5.164336 17.213449-7.748761 30.984509-7.748761 13.777081 0 27.260648 3.308426 40.461237 9.90571 13.2036 6.60481 19.797874 15.639011 19.797874 27.117654 0 11.49219-6.023804 18.656934-18.074422 21.521326-37.872296 9.18472-61.982564 21.512295-72.306719 37.011323 16.057456-1.723452 30.984509 2.445947 44.757074 12.4796 13.77106 10.045694 20.663363 17.654472 20.663363 22.818807 0 5.15982-3.589898 11.186634-10.756148 18.071412-7.185817 6.887788-19.088926 27.405147-35.724378 61.553582-16.65201 34.157467-24.963715 56.247758-24.963715 66.284421 0 10.030642 7.748761 18.364925 23.237252 24.96221 15.496017 6.594274 38.444272 9.904205 68.868846 9.904205 68.284829 0 119.50372-11.620131 153.656671-34.866415 34.145425-23.237252 51.224911-54.665795 51.224911-94.263048l-0.859468-18.078938c0-6.877251 1.285439-10.328671 3.86836-10.328671s5.591812 5.742332 9.041727 17.22248c12.609047 47.633508 25.240672 87.512233 37.873801 119.648219 2.281881 6.305276 3.449915 12.914602 3.449915 19.799379C835.485945 786.892121 830.601577 793.347917 820.846386 799.371721z" p-id="107928"></path></svg>