<?xml version="1.0" standalone="no"?><!DOCTYPE svg PUBLIC "-//W3C//DTD SVG 1.1//EN" "http://www.w3.org/Graphics/SVG/1.1/DTD/svg11.dtd"><svg t="1508920223472" class="icon" style="" viewBox="0 0 1025 1024" version="1.1" xmlns="http://www.w3.org/2000/svg" p-id="1943" xmlns:xlink="http://www.w3.org/1999/xlink" width="200.1953125" height="200"><defs><style type="text/css"></style></defs><path d="M839.032099 435.2c12.8 0 25.6-6.4 25.6-19.2 0 0 0 0 0 0 19.2-172.8-153.6-147.2-153.6-147.2-12.8 0-25.6 12.8-25.6 25.6 0 12.8 12.8 25.6 25.6 25.6 121.6-25.6 96 89.6 96 89.6C813.432099 422.4 819.832099 435.2 839.032099 435.2z" p-id="1944"></path><path d="M819.832099 134.4c-57.6-12.8-121.6 0-140.8 0 0 0 0 0-6.4 0 0 0 0 0 0 0-19.2 6.4-32 19.2-32 38.4 0 19.2 19.2 38.4 38.4 38.4 0 0 19.2 0 38.4-6.4 12.8-6.4 140.8-6.4 198.4 96 32 76.8 12.8 128 12.8 134.4 0 0-6.4 19.2-6.4 38.4 0 19.2 19.2 38.4 38.4 38.4 19.2 0 32 0 38.4-32l0 0C1075.832099 256 922.232099 153.6 819.832099 134.4z" p-id="1945"></path><path d="M365.432099 550.4c-166.4 19.2-147.2 166.4-147.2 166.4s0 44.8 44.8 70.4C359.032099 832 461.432099 800 512.632099 742.4 563.832099 678.4 538.232099 531.2 365.432099 550.4zM327.032099 755.2c-32 6.4-57.6-12.8-57.6-38.4 0-25.6 25.6-51.2 51.2-51.2C359.032099 659.2 384.632099 678.4 384.632099 704 384.632099 729.6 359.032099 748.8 327.032099 755.2zM423.032099 672c-12.8 6.4-25.6 6.4-32 0-6.4-6.4-6.4-25.6 6.4-32 12.8-6.4 25.6-6.4 32 0C435.832099 652.8 435.832099 665.6 423.032099 672z" p-id="1946"></path><path d="M755.832099 512c-38.4-6.4-19.2-25.6-19.2-25.6s38.4-57.6-6.4-102.4c-57.6-51.2-198.4 6.4-198.4 6.4C474.232099 403.2 493.432099 384 499.832099 345.6c0-44.8-19.2-121.6-160-76.8C199.032099 313.6 77.432099 467.2 77.432099 467.2-12.167901 576 0.632099 659.2 0.632099 659.2c19.2 179.2 224 230.4 384 243.2 166.4 12.8 396.8-51.2 467.2-192C922.232099 569.6 794.232099 518.4 755.832099 512zM403.832099 844.8c-166.4 6.4-300.8-70.4-300.8-172.8 0-102.4 134.4-185.6 300.8-192C570.232099 473.6 704.632099 537.6 704.632099 640 704.632099 742.4 570.232099 838.4 403.832099 844.8z" p-id="1947"></path></svg>