<?xml version="1.0" standalone="no"?><!DOCTYPE svg PUBLIC "-//W3C//DTD SVG 1.1//EN" "http://www.w3.org/Graphics/SVG/1.1/DTD/svg11.dtd"><svg t="1508920216580" class="icon" style="" viewBox="0 0 1024 1024" version="1.1" xmlns="http://www.w3.org/2000/svg" p-id="1819" xmlns:xlink="http://www.w3.org/1999/xlink" width="200" height="200"><defs><style type="text/css"></style></defs><path d="M1024 627.2c0-140.8-147.2-256-307.2-256-172.8 0-307.2 115.2-307.2 256 0 140.8 134.4 256 307.2 256 38.4 0 70.4-6.4 108.8-19.2l102.4 51.2L896 832C966.4 774.4 1024 704 1024 627.2zM614.4 582.4c-19.2 0-38.4-19.2-38.4-38.4C582.4 531.2 595.2 512 614.4 512c25.6 0 44.8 19.2 44.8 38.4C659.2 563.2 640 582.4 614.4 582.4zM812.8 582.4c-19.2 0-38.4-19.2-38.4-38.4 0-19.2 19.2-38.4 38.4-38.4 25.6 0 44.8 19.2 44.8 38.4C857.6 563.2 844.8 582.4 812.8 582.4z" p-id="1820"></path><path d="M691.2 352c12.8 0 25.6 0 32 0-32-140.8-185.6-249.6-364.8-249.6C160 108.8 0 236.8 0 403.2c0 96 51.2 179.2 147.2 236.8l-38.4 108.8 128-64C281.6 697.6 320 704 364.8 704c12.8 0 25.6 0 32 0C390.4 678.4 384 659.2 384 633.6 384 473.6 518.4 352 691.2 352zM499.2 256c25.6 0 44.8 19.2 44.8 44.8 0 25.6-19.2 44.8-44.8 44.8-25.6 0-51.2-19.2-51.2-44.8C441.6 275.2 473.6 256 499.2 256zM243.2 345.6C217.6 345.6 192 326.4 192 300.8 192 275.2 217.6 256 243.2 256c25.6 0 44.8 19.2 44.8 44.8C288 326.4 268.8 345.6 243.2 345.6z" p-id="1821"></path></svg>